<svg id="Layer_1" data-name="Layer 1" xmlns="http://www.w3.org/2000/svg" viewBox="0 0 1315.18 1123.36"><defs><style>.cls-1{opacity:0.05;font-size:200px;font-family:Montserrat-ThinItalic, Montserrat;font-weight:200;font-style:italic;}.cls-2{letter-spacing:-0.02em;}.cls-3{letter-spacing:-0.01em;}</style></defs><text class="cls-1" transform="translate(0 170)">he<tspan class="cls-2" x="251.4" y="0">t</tspan><tspan x="325" y="0">e</tspan><tspan class="cls-3" x="442.79" y="0">r</tspan><tspan x="516.39" y="0">oglossia</tspan></text><text class="cls-1" transform="translate(0 350.31)">he<tspan class="cls-2" x="251.4" y="0">t</tspan><tspan x="325" y="0">e</tspan><tspan class="cls-3" x="442.79" y="0">r</tspan><tspan x="516.39" y="0">oglossia</tspan></text><text class="cls-1" transform="translate(0 530.62)">he<tspan class="cls-2" x="251.4" y="0">t</tspan><tspan x="325" y="0">e</tspan><tspan class="cls-3" x="442.79" y="0">r</tspan><tspan x="516.39" y="0">oglossia</tspan></text><text class="cls-1" transform="translate(0 710.94)">he<tspan class="cls-2" x="251.4" y="0">t</tspan><tspan x="325" y="0">e</tspan><tspan class="cls-3" x="442.79" y="0">r</tspan><tspan x="516.39" y="0">oglossia</tspan></text><text class="cls-1" transform="translate(0 891.25)">he<tspan class="cls-2" x="251.4" y="0">t</tspan><tspan x="325" y="0">e</tspan><tspan class="cls-3" x="442.79" y="0">r</tspan><tspan x="516.39" y="0">oglossia</tspan></text><text class="cls-1" transform="translate(0 1071.56)">he<tspan class="cls-2" x="251.4" y="0">t</tspan><tspan x="325" y="0">e</tspan><tspan class="cls-3" x="442.79" y="0">r</tspan><tspan x="516.39" y="0">oglossia</tspan></text></svg>