<svg id="Layer_1" data-name="Layer 1" xmlns="http://www.w3.org/2000/svg" xmlns:xlink="http://www.w3.org/1999/xlink" viewBox="0 0 414 736"><defs><style>.cls-1{fill:url(#linear-gradient);}.cls-2{font-size:50px;}.cls-13,.cls-2,.cls-5{fill:#231f20;}.cls-2,.cls-5,.cls-8{font-family:OpenSans-Regular, Open Sans;}.cls-3{letter-spacing:-0.01em;}.cls-4{letter-spacing:0em;}.cls-5{font-size:45px;}.cls-6{letter-spacing:0.03em;}.cls-7{letter-spacing:0em;}.cls-8{font-size:54px;}.cls-11,.cls-8{fill:#fff;}.cls-9{letter-spacing:0.09em;}.cls-10,.cls-12{fill:none;stroke-miterlimit:10;}.cls-10{stroke:#fff;stroke-width:7.15px;}.cls-12{stroke:#231f20;stroke-width:7.15px;}</style><linearGradient id="linear-gradient" x1="-161" y1="368" x2="575" y2="368" gradientTransform="translate(0 0)" gradientUnits="userSpaceOnUse"><stop offset="0.03" stop-color="#fff"/><stop offset="0.04" stop-color="#fafafa"/><stop offset="0.11" stop-color="#c6c6c6"/><stop offset="0.2" stop-color="#979797"/><stop offset="0.28" stop-color="#6e6e6e"/><stop offset="0.37" stop-color="#4c4c4c"/><stop offset="0.46" stop-color="#303030"/><stop offset="0.56" stop-color="#1b1b1b"/><stop offset="0.68" stop-color="#0c0c0c"/><stop offset="0.81" stop-color="#030303"/><stop offset="1"/></linearGradient></defs><rect class="cls-1" x="-161" y="161" width="736" height="414" transform="translate(575 161) rotate(90)"/><text class="cls-2" transform="translate(78.04 240.95)">It’s<tspan class="cls-3" x="64.09" y="0"> </tspan><tspan x="76.33" y="0">a</tspan><tspan class="cls-3" x="104.11" y="0"> </tspan><tspan x="116.36" y="0">shame</tspan></text><text class="cls-2" transform="translate(78.04 292.15)">our<tspan class="cls-4" x="81.18" y="0"> </tspan><tspan x="94.39" y="0">favorite</tspan></text><text class="cls-5" transform="translate(78.04 339.54)">words<tspan class="cls-6" x="129.31" y="0"> </tspan><tspan class="cls-7" x="142.56" y="0">are</tspan><tspan class="cls-6" x="211.23" y="0"> </tspan><tspan x="224.48" y="0">so</tspan></text><text class="cls-8" transform="translate(31.54 401.58)">hard<tspan class="cls-9" x="118.23" y="0"> </tspan><tspan x="136.95" y="0">to</tspan><tspan class="cls-9" x="188.68" y="0"> </tspan><tspan x="207.4" y="0">define</tspan></text><line class="cls-10" x1="71.59" y1="441.4" x2="356.74" y2="441.4"/><polygon class="cls-11" points="68.01 441.4 69.57 420.74 72.79 422.37 50.08 436.58 70.4 419.12 73.3 416.62 73.61 420.74 75.17 441.4 75.44 444.98 67.74 444.98 68.01 441.4"/><polygon class="cls-11" points="353.16 441.4 354.61 420.74 354.96 415.74 358.19 419.18 379.01 441.4 355.29 422.3 358.87 420.74 360.31 441.4 360.57 444.98 352.91 444.98 353.16 441.4"/><polyline class="cls-12" points="71.59 324.59 71.59 194.14 356.74 194.14 356.74 324.59"/><polygon class="cls-13" points="360.14 327.96 358.65 348.62 355.6 347.07 378.25 332.78 357.87 350.16 355.1 352.53 354.82 348.62 353.34 327.96 353.09 324.56 360.38 324.56 360.14 327.96"/><polygon class="cls-13" points="74.99 326.46 73.51 347.12 73.23 351.03 70.45 348.67 50.08 331.29 72.73 345.58 69.67 347.12 68.19 326.46 67.95 323.06 75.23 323.06 74.99 326.46"/></svg>