<svg id="Layer_1" data-name="Layer 1" xmlns="http://www.w3.org/2000/svg" viewBox="0 0 414 736"><defs><style>.cls-1{fill:#e0d8d1;}.cls-2{fill:#f2efee;}.cls-3{fill:#9b8579;}.cls-4{fill:#c2b59b;}.cls-5{fill:#fff;stroke:#58595b;stroke-miterlimit:10;stroke-width:1.47px;}.cls-6{fill:#939598;}.cls-7{font-size:51.08px;fill:#ee1e3a;font-family:PermanentMarkerPro, Permanent Marker Pro;}.cls-8{letter-spacing:-0.01em;}.cls-9{font-size:48px;fill:#606161;font-family:Chalkboard;}.cls-10{letter-spacing:-0.03em;}.cls-11{letter-spacing:0.03em;}.cls-12{letter-spacing:0em;}.cls-13{letter-spacing:0.01em;}.cls-14{letter-spacing:0.03em;}.cls-15{letter-spacing:0.03em;}.cls-16{letter-spacing:0.02em;}.cls-17{letter-spacing:0.02em;}.cls-18{letter-spacing:-0.04em;}.cls-19{letter-spacing:0.01em;}.cls-20{letter-spacing:-0.02em;}</style></defs><rect class="cls-1" width="414" height="736"/><polygon class="cls-2" points="456.8 618.58 20.16 618.58 -70.14 491.98 366.5 491.98 456.8 618.58"/><polyline class="cls-3" points="64.76 162.07 29.66 511.31 87.72 511.31 97.02 431.16"/><polyline class="cls-3" points="183.05 431.16 174.82 513.04 232.88 513.04 242.18 427.71"/><polygon class="cls-4" points="151.89 431.16 163.26 525.69 108.39 525.69 97.02 431.16 151.89 431.16"/><polyline class="cls-4" points="242.18 431.16 253.54 525.69 308.41 525.69 297.05 431.16"/><polygon class="cls-5" points="296.85 431.16 97.61 431.16 65.26 162.07 264.5 162.07 296.85 431.16"/><polygon class="cls-6" points="95.66 418.95 303.41 418.95 297.82 432.16 97.26 432.16 95.66 418.95"/><text class="cls-7" transform="matrix(0.94, 0, 0.34, 0.94, 92.02, 242.64)"><tspan class="cls-8">s</tspan><tspan x="23.19" y="0">peshul</tspan></text><text class="cls-9" transform="translate(20.16 64.23)">“<tspan class="cls-10" x="21.22" y="0">y</tspan><tspan class="cls-11" x="45.61" y="0">o</tspan><tspan class="cls-12" x="70.49" y="0">u </tspan><tspan class="cls-13" x="114.19" y="0">w</tspan><tspan class="cls-14" x="149.04" y="0">o</tspan><tspan class="cls-15" x="173.91" y="0">u</tspan><tspan x="200.53" y="0">ld k</tspan><tspan class="cls-16" x="283.33" y="0">n</tspan><tspan class="cls-17" x="308.94" y="0">o</tspan><tspan x="333.5" y="0">w </tspan><tspan x="0" y="57.6">h</tspan><tspan class="cls-17" x="26.09" y="57.6">o</tspan><tspan class="cls-12" x="50.65" y="57.6">w </tspan><tspan class="cls-18" x="103.58" y="57.6">t</tspan><tspan x="123.42" y="57.6">o s</tspan><tspan class="cls-19" x="185.84" y="57.6">p</tspan><tspan x="211.73" y="57.6">e</tspan><tspan class="cls-20" x="236.97" y="57.6">l</tspan><tspan x="250.66" y="57.6">l</tspan></text><rect class="cls-2" y="594.31" width="414" height="141.69"/></svg>