<svg id="Layer_1" data-name="Layer 1" xmlns="http://www.w3.org/2000/svg" viewBox="0 0 414 514.69"><defs><style>.cls-1{fill:#d1d3d4;}.cls-2{fill:#939598;}.cls-3{fill:#fff;}.cls-4{fill:#010101;}.cls-5,.cls-6{fill:#231f20;}.cls-6{font-size:72px;font-family:SavoyeLetPlain, Savoye LET;}</style></defs><rect class="cls-1" width="414" height="514.69"/><rect class="cls-2" x="88.29" y="374.19" width="246.98" height="3.91"/><rect class="cls-3" x="28.4" y="162.26" width="364" height="210.09"/><path class="cls-2" d="M390.56,164.1V370.51H30.24V164.1H390.56m3.68-3.68H26.56V374.19H394.24V160.42Z"/><path class="cls-4" d="M136.63,403.93v41.39H19.76V403.93c0-21.48,19.66-39,43.83-39H92.8C117,365,136.63,382.45,136.63,403.93ZM78.19,357.67a36.52,36.52,0,1,0-36.52-36.52A36.56,36.56,0,0,0,78.19,357.67Z"/><polygon class="cls-4" points="202.67 284.63 116.03 429.56 116.03 445.32 131.78 435.86 202.67 284.63"/><path class="cls-5" d="M47.12,160.42H26.56v17.44s10.33,3.51,17-2.69S47.12,160.42,47.12,160.42Z"/><path class="cls-5" d="M373.68,160.42h20.56v17.44s-10.33,3.51-17-2.69S373.68,160.42,373.68,160.42Z"/><path class="cls-5" d="M373.68,374.19h20.56V356.75s-10.33-3.51-17,2.68S373.68,374.19,373.68,374.19Z"/><path class="cls-5" d="M47.12,374.19H26.56V356.75s10.33-3.51,17,2.68S47.12,374.19,47.12,374.19Z"/><text class="cls-6" transform="translate(46.82 236.04)">so stop swallowing</text><text class="cls-6" transform="translate(217.97 310.87)">your S’s</text><path class="cls-5" d="M27.55,118.34a.25.25,0,0,1-.21-.32l.06-.71c0-.17.09-.22.25-.15a2.13,2.13,0,0,0,.78.13,2.38,2.38,0,0,0,.81-.14,1.28,1.28,0,0,0,.56-.37,4.43,4.43,0,0,0,.51-1c.19-.45.37-1,.56-1.54-.63-1.7-1.26-3.39-1.87-5.06s-1.24-3.35-1.87-5.06a.23.23,0,0,1,0-.2.17.17,0,0,1,.17-.09h1a.43.43,0,0,1,.42.29l2.84,8.15L33,108.23c.47-1.3,1-2.65,1.48-4.07a.41.41,0,0,1,.42-.29h.9A.17.17,0,0,1,36,104a.23.23,0,0,1,0,.2l-4.37,11.72a6.49,6.49,0,0,1-.51,1.09,4,4,0,0,1-.58.78,2.34,2.34,0,0,1-.84.53,2.65,2.65,0,0,1-1,.18,4.88,4.88,0,0,1-.56,0A4.49,4.49,0,0,1,27.55,118.34Z"/><path class="cls-5" d="M48.13,109.56a7.11,7.11,0,0,1-.36,2.3,6.76,6.76,0,0,1-.94,1.86,5.06,5.06,0,0,1-1.76,1.36,5.38,5.38,0,0,1-2.32.48,5.45,5.45,0,0,1-2.33-.48,5,5,0,0,1-1.76-1.36,6.5,6.5,0,0,1-.94-1.86,7.39,7.39,0,0,1-.34-2.3,6.47,6.47,0,0,1,1.28-4.16,5,5,0,0,1,4.09-1.83,5.51,5.51,0,0,1,2.33.46,4.62,4.62,0,0,1,1.75,1.37A6.58,6.58,0,0,1,48.13,109.56Zm-1.56,0a6.18,6.18,0,0,0-.26-1.85,5.39,5.39,0,0,0-.72-1.53,3.49,3.49,0,0,0-2.84-1.35,3.53,3.53,0,0,0-1.58.35,3.71,3.71,0,0,0-1.25,1,5.19,5.19,0,0,0-.75,1.53,6.51,6.51,0,0,0-.26,1.85,6.6,6.6,0,0,0,.26,1.87,4.85,4.85,0,0,0,.75,1.51,3.49,3.49,0,0,0,2.83,1.37,3.45,3.45,0,0,0,1.59-.36,4.12,4.12,0,0,0,1.25-1,5,5,0,0,0,.72-1.51A6.26,6.26,0,0,0,46.57,109.56Z"/><path class="cls-5" d="M60,114.94a.25.25,0,0,1-.29.29H59a.26.26,0,0,1-.29-.29v-1.75A3.79,3.79,0,0,1,57.21,115a4.38,4.38,0,0,1-2.3.55q-3.93,0-3.93-4.38v-7a.26.26,0,0,1,.3-.29h.84a.26.26,0,0,1,.29.29v6.64q0,3.57,2.73,3.57a3,3,0,0,0,1.44-.35,3.15,3.15,0,0,0,1.08-.94,4.23,4.23,0,0,0,.67-1.4,5.17,5.17,0,0,0,.21-1.68v-5.84a.26.26,0,0,1,.3-.29h.84a.26.26,0,0,1,.29.29v8.44c0,.47,0,.88,0,1.24Z"/><path class="cls-5" d="M80.31,115a.3.3,0,0,1-.33.23H78.74a.34.34,0,0,1-.34-.23l-3-9.66q-.78,2.43-1.55,4.83c-.52,1.59-1,3.2-1.56,4.81,0,.17-.17.25-.38.25H70.78a.75.75,0,0,1-.24,0c-.07,0-.11-.1-.14-.21l-3.51-10.82a.21.21,0,0,1,0-.2.23.23,0,0,1,.19-.09h1a.42.42,0,0,1,.38.29l3,9.58c.52-1.61,1-3.19,1.52-4.74s1-3.12,1.52-4.73a.47.47,0,0,1,.49-.4h1a.48.48,0,0,1,.51.4l2.92,9.47q.8-2.47,1.54-4.79t1.54-4.79a.51.51,0,0,1,.15-.21.4.4,0,0,1,.23-.08h.84a.21.21,0,0,1,.21.29Z"/><path class="cls-5" d="M96.1,109.56a7.39,7.39,0,0,1-.35,2.3,6.78,6.78,0,0,1-1,1.86,5,5,0,0,1-1.75,1.36,5.87,5.87,0,0,1-4.65,0,5,5,0,0,1-1.77-1.36,6.48,6.48,0,0,1-.93-1.86,7.39,7.39,0,0,1-.35-2.3,6.53,6.53,0,0,1,1.28-4.16,5,5,0,0,1,4.1-1.83,5.51,5.51,0,0,1,2.33.46,4.67,4.67,0,0,1,1.74,1.37A6.52,6.52,0,0,1,96.1,109.56Zm-1.55,0a6.51,6.51,0,0,0-.26-1.85,5.7,5.7,0,0,0-.73-1.53,3.47,3.47,0,0,0-2.83-1.35,3.57,3.57,0,0,0-1.59.35,3.81,3.81,0,0,0-1.25,1,5.17,5.17,0,0,0-.74,1.53,6.18,6.18,0,0,0-.27,1.85,6.26,6.26,0,0,0,.27,1.87,4.84,4.84,0,0,0,.74,1.51,3.51,3.51,0,0,0,2.84,1.37,3.4,3.4,0,0,0,1.58-.36,4,4,0,0,0,1.25-1,5.3,5.3,0,0,0,.73-1.51A6.6,6.6,0,0,0,94.55,109.56Z"/><path class="cls-5" d="M108,114.94a.26.26,0,0,1-.29.29h-.76a.25.25,0,0,1-.29-.29v-1.75a3.9,3.9,0,0,1-1.46,1.82,4.38,4.38,0,0,1-2.3.55q-3.93,0-3.93-4.38v-7a.26.26,0,0,1,.29-.29h.84a.26.26,0,0,1,.3.29v6.64q0,3.57,2.73,3.57a3,3,0,0,0,1.44-.35,3.34,3.34,0,0,0,1.08-.94,4.43,4.43,0,0,0,.67-1.4,5.78,5.78,0,0,0,.21-1.68v-5.84a.26.26,0,0,1,.29-.29h.84a.26.26,0,0,1,.3.29v8.44c0,.47,0,.88,0,1.24S108,114.57,108,114.94Z"/><path class="cls-5" d="M112.9,115.23H112a.25.25,0,0,1-.29-.29V98.83c0-.2.09-.3.29-.3h.92a.27.27,0,0,1,.3.3v16.11A.26.26,0,0,1,112.9,115.23Z"/><path class="cls-5" d="M125.86,114.94a.26.26,0,0,1-.29.29h-.82a.26.26,0,0,1-.3-.29v-1.58a3.82,3.82,0,0,1-3.65,2.14,4.1,4.1,0,0,1-3.51-1.72,7.08,7.08,0,0,1-1.15-4.24c0-3.94,1.55-5.9,4.66-5.9a4.92,4.92,0,0,1,2.24.5,3.26,3.26,0,0,1,1.41,1.3V98.83a.27.27,0,0,1,.3-.3h.82a.26.26,0,0,1,.29.3Zm-8.17-5.4a9,9,0,0,0,.16,1.79,4.75,4.75,0,0,0,.49,1.42,3.37,3.37,0,0,0,1.12,1.16,3.1,3.1,0,0,0,1.59.4,2.52,2.52,0,0,0,1.48-.45,3.7,3.7,0,0,0,1.07-1.12,5.1,5.1,0,0,0,.64-1.53,7,7,0,0,0,.21-1.67,7.38,7.38,0,0,0-.22-1.87,4.71,4.71,0,0,0-.65-1.49,3.22,3.22,0,0,0-1.06-1,2.91,2.91,0,0,0-1.47-.36,3,3,0,0,0-2.71,1.54,4.78,4.78,0,0,0-.49,1.41A8.86,8.86,0,0,0,117.69,109.54Z"/><path class="cls-5" d="M138.48,114.94a.26.26,0,0,1-.29.29h-.84a.26.26,0,0,1-.3-.29v-6.62a4.24,4.24,0,0,0-.69-2.74,2.42,2.42,0,0,0-2-.81,3.41,3.41,0,0,0-2.6,1,3.71,3.71,0,0,0-.89,2.64v6.58a.26.26,0,0,1-.29.29h-.84a.26.26,0,0,1-.3-.29v-8.4c0-.61,0-1.08,0-1.41s0-.66,0-1a.23.23,0,0,1,.07-.22.36.36,0,0,1,.22-.07h.76a.26.26,0,0,1,.29.29v1.16a3.81,3.81,0,0,1,1.42-1.33,5.1,5.1,0,0,1,2.28-.42,3.77,3.77,0,0,1,3,1.16,4.79,4.79,0,0,1,1,3.25Z"/><path class="cls-5" d="M142.22,101.16a1.2,1.2,0,0,1-1-.25,1.07,1.07,0,0,1-.43-.86,1.12,1.12,0,0,1,.36-.84,1.15,1.15,0,0,1,.84-.36,1,1,0,0,1,.8.37,1.41,1.41,0,0,1,.35.87,4.6,4.6,0,0,1-.06,1.52,4.13,4.13,0,0,1-.46,1.15,3.86,3.86,0,0,1-.62.69,2.21,2.21,0,0,1-.83.46c-.15,0-.24,0-.26,0a.67.67,0,0,1,0-.27v-.23a.91.91,0,0,1,0-.31.64.64,0,0,1,.26-.13,1.44,1.44,0,0,0,.73-.63A2.27,2.27,0,0,0,142.22,101.16Z"/><path class="cls-5" d="M151.39,115.25a5.07,5.07,0,0,1-1.74.31,2.27,2.27,0,0,1-2.25-1.11,7.06,7.06,0,0,1-.35-2.66v-6.7h-2a.26.26,0,0,1-.29-.3v-.63a.26.26,0,0,1,.29-.29h2V101c0-.21.09-.31.27-.31h.88c.18,0,.28.1.28.31v2.84h2.33a.26.26,0,0,1,.29.29v.63a.26.26,0,0,1-.29.3h-2.33v7.41c0,1.25.5,1.87,1.51,1.87a4.34,4.34,0,0,0,1.32-.25.23.23,0,0,1,.2,0,.15.15,0,0,1,.09.16l.05.55A.37.37,0,0,1,151.39,115.25Z"/><path class="cls-5" d="M157.88,113.84a6.88,6.88,0,0,0,2.64.53,3,3,0,0,0,1.87-.56,1.79,1.79,0,0,0,.74-1.5,1.71,1.71,0,0,0-.41-1.06,3.56,3.56,0,0,0-1-.85c-.44-.24-.88-.47-1.34-.68s-.89-.45-1.31-.69a2.8,2.8,0,0,1-1.11-1,2.52,2.52,0,0,1-.36-1.29,2.94,2.94,0,0,1,1.09-2.35,3.54,3.54,0,0,1,1.18-.59,5.49,5.49,0,0,1,1.43-.19,9.2,9.2,0,0,1,1.38.09,8,8,0,0,1,1.18.25.61.61,0,0,1,.22.13.23.23,0,0,1,.07.23l-.06.63a.23.23,0,0,1-.12.21.26.26,0,0,1-.21,0,5.07,5.07,0,0,0-1-.27,11.2,11.2,0,0,0-1.26-.07c-1.63,0-2.44.65-2.44,1.93a1.24,1.24,0,0,0,.32.8,3.52,3.52,0,0,0,1.11.76l1.32.64q.65.3,1.41.72a2.9,2.9,0,0,1,1.08,1.09,3.1,3.1,0,0,1,.43,1.6,2.89,2.89,0,0,1-1.24,2.46,4.43,4.43,0,0,1-1.3.6,5.9,5.9,0,0,1-1.51.19c-.31,0-.59,0-.83,0s-.48,0-.7-.06l-.66-.1c-.22,0-.46-.1-.71-.17a.34.34,0,0,1-.27-.38l.08-.78C157.57,113.83,157.68,113.76,157.88,113.84Z"/><path class="cls-5" d="M167.09,104.16a.26.26,0,0,1,.3-.29h.8a.26.26,0,0,1,.29.29l-.1,1.58a3.16,3.16,0,0,1,1.41-1.49,4.61,4.61,0,0,1,2.32-.57,4.67,4.67,0,0,1,2.11.44,3.91,3.91,0,0,1,1.43,1.21,5.09,5.09,0,0,1,.82,1.81,9,9,0,0,1,.26,2.25,9.33,9.33,0,0,1-.3,2.42,6.22,6.22,0,0,1-.88,1.93,4.44,4.44,0,0,1-1.44,1.29,4.16,4.16,0,0,1-2,.47,4.58,4.58,0,0,1-2.2-.49,3.35,3.35,0,0,1-1.41-1.38v4.52a.26.26,0,0,1-.29.29h-.8a.35.35,0,0,1-.22-.08.3.3,0,0,1-.1-.21Zm8.11,5.23a8.37,8.37,0,0,0-.17-1.67,4.18,4.18,0,0,0-.57-1.44,3.11,3.11,0,0,0-1-1,3,3,0,0,0-4.11.95,4.71,4.71,0,0,0-.62,1.44,7,7,0,0,0-.21,1.74,6.29,6.29,0,0,0,.91,3.69,3,3,0,0,0,3.87.9,3,3,0,0,0,1.05-1,4.86,4.86,0,0,0,.65-1.55A8.45,8.45,0,0,0,175.2,109.39Z"/><path class="cls-5" d="M180.79,110a5.38,5.38,0,0,0,.24,1.86,3.55,3.55,0,0,0,.76,1.35A3.3,3.3,0,0,0,183,114a4,4,0,0,0,1.57.3,7.8,7.8,0,0,0,1.57-.16,4.92,4.92,0,0,0,1.37-.52q.27-.12.27.15v1a.33.33,0,0,1-.23.29,7.78,7.78,0,0,1-1.45.41,9.4,9.4,0,0,1-1.64.13,5,5,0,0,1-3.91-1.5,8,8,0,0,1,0-8.83,4.41,4.41,0,0,1,3.51-1.66,4.61,4.61,0,0,1,2,.42,4,4,0,0,1,1.47,1.26,6.76,6.76,0,0,1,1.07,4c0,.19,0,.33,0,.42a.34.34,0,0,1-.07.21.35.35,0,0,1-.23.08h-7.54Zm6.3-1.2a6.45,6.45,0,0,0-.17-1.53,3.83,3.83,0,0,0-.53-1.22,2.48,2.48,0,0,0-2.24-1.24,2.94,2.94,0,0,0-2.46,1.26,5.81,5.81,0,0,0-.63,1.3,4.68,4.68,0,0,0-.27,1.43Z"/><path class="cls-5" d="M192,105.63a.25.25,0,0,1-.2,0,.12.12,0,0,1-.09-.13v-.8a.46.46,0,0,1,.29-.44,5.39,5.39,0,0,1,1.56-.56,10.27,10.27,0,0,1,1.82-.16,4.15,4.15,0,0,1,3.07,1,4.2,4.2,0,0,1,1,3v5.28c0,.42,0,.79,0,1.12s0,.65.07,1a.26.26,0,0,1-.3.29h-.75a.26.26,0,0,1-.3-.29v-1.62a3.36,3.36,0,0,1-1.48,1.66,4.5,4.5,0,0,1-2.26.58,3.73,3.73,0,0,1-3.1-1.23,2.78,2.78,0,0,1-.51-1,3.87,3.87,0,0,1-.17-1.1,4,4,0,0,1,.6-2.21,3.57,3.57,0,0,1,1.84-1.38,14.45,14.45,0,0,1,4.64-.55H198v-.63a3,3,0,0,0-.59-2,2.54,2.54,0,0,0-2-.69,7.83,7.83,0,0,0-1.78.2A5.31,5.31,0,0,0,192,105.63Zm6,3.68h-.39a11.37,11.37,0,0,0-2.09.09,7.8,7.8,0,0,0-1.53.37,2.68,2.68,0,0,0-1.32.93,2.54,2.54,0,0,0-.44,1.48,2.84,2.84,0,0,0,.17,1,1.38,1.38,0,0,0,.52.7,2.59,2.59,0,0,0,1.68.51,3.14,3.14,0,0,0,2.44-1.14,3.77,3.77,0,0,0,.71-1.35A6.2,6.2,0,0,0,198,110Z"/><path class="cls-5" d="M206.7,108.93l4.54,6a.27.27,0,0,1,0,.19.14.14,0,0,1-.15.1h-.9a1.12,1.12,0,0,1-.38-.06.6.6,0,0,1-.27-.23l-3.78-5-1.41,1.57v3.43a.26.26,0,0,1-.29.29h-.84a.26.26,0,0,1-.3-.29V98.81a.27.27,0,0,1,.3-.3h.84a.26.26,0,0,1,.29.3v10.94l4.79-5.59a.94.94,0,0,1,.69-.29h1a.18.18,0,0,1,.17.09.19.19,0,0,1-.07.2Z"/><path class="cls-5" d="M218.3,99.9a1,1,0,0,1,.3-.73.94.94,0,0,1,.71-.3,1,1,0,0,1,1,1,.94.94,0,0,1-.3.71,1,1,0,0,1-.73.3,1,1,0,0,1-1-1Zm1.5,15.33h-.93a.25.25,0,0,1-.29-.29V104.16a.25.25,0,0,1,.29-.29h.93a.26.26,0,0,1,.29.29v10.78A.26.26,0,0,1,219.8,115.23Z"/><path class="cls-5" d="M232.67,114.94a.26.26,0,0,1-.29.29h-.85a.26.26,0,0,1-.29-.29v-6.62a4.24,4.24,0,0,0-.69-2.74,2.44,2.44,0,0,0-2-.81,3.41,3.41,0,0,0-2.59,1,3.71,3.71,0,0,0-.89,2.64v6.58a.26.26,0,0,1-.3.29H224a.26.26,0,0,1-.29-.29v-8.4c0-.61,0-1.08,0-1.41s0-.66,0-1a.21.21,0,0,1,.07-.22.34.34,0,0,1,.22-.07h.76a.26.26,0,0,1,.29.29v1.16a3.74,3.74,0,0,1,1.42-1.33,5.1,5.1,0,0,1,2.28-.42,3.77,3.77,0,0,1,3,1.16,4.79,4.79,0,0,1,1,3.25Z"/><path class="cls-5" d="M241.61,105.63a.25.25,0,0,1-.2,0,.12.12,0,0,1-.1-.13v-.8a.47.47,0,0,1,.3-.44,5.39,5.39,0,0,1,1.56-.56,10.19,10.19,0,0,1,1.82-.16,4.11,4.11,0,0,1,3.06,1,4.16,4.16,0,0,1,1,3v5.28c0,.42,0,.79,0,1.12s0,.65.06,1a.26.26,0,0,1-.29.29h-.76a.26.26,0,0,1-.29-.29v-1.62a3.41,3.41,0,0,1-1.48,1.66,4.56,4.56,0,0,1-2.26.58,3.76,3.76,0,0,1-3.11-1.23,2.93,2.93,0,0,1-.5-1,3.87,3.87,0,0,1-.17-1.1,4,4,0,0,1,.6-2.21,3.57,3.57,0,0,1,1.84-1.38,14.37,14.37,0,0,1,4.64-.55h.27v-.63a3,3,0,0,0-.6-2,2.53,2.53,0,0,0-2-.69,7.92,7.92,0,0,0-1.79.2A5.26,5.26,0,0,0,241.61,105.63Zm6,3.68h-.4a11.45,11.45,0,0,0-2.09.09,7.69,7.69,0,0,0-1.52.37,2.64,2.64,0,0,0-1.32.93,2.47,2.47,0,0,0-.44,1.48,2.84,2.84,0,0,0,.16,1,1.46,1.46,0,0,0,.53.7,2.59,2.59,0,0,0,1.68.51,3,3,0,0,0,1.35-.3,2.93,2.93,0,0,0,1.08-.84,3.78,3.78,0,0,0,.72-1.35,6.2,6.2,0,0,0,.25-1.86Z"/><path class="cls-5" d="M261.56,114.94a.26.26,0,0,1-.3.29h-.84a.26.26,0,0,1-.29-.29v-6.62a4.24,4.24,0,0,0-.69-2.74,2.46,2.46,0,0,0-2-.81,3.39,3.39,0,0,0-2.59,1,3.67,3.67,0,0,0-.89,2.64v6.58a.26.26,0,0,1-.3.29h-.84a.26.26,0,0,1-.29-.29v-8.4c0-.61,0-1.08,0-1.41s0-.66-.06-1a.23.23,0,0,1,.08-.22.32.32,0,0,1,.22-.07h.76a.26.26,0,0,1,.29.29v1.16a3.67,3.67,0,0,1,1.42-1.33,5.08,5.08,0,0,1,2.27-.42,3.77,3.77,0,0,1,3,1.16,4.79,4.79,0,0,1,1,3.25Z"/><path class="cls-5" d="M270.77,115.25c-.3,0-.47,0-.52-.07s-.07-.22-.07-.52V100.19a.4.4,0,0,1,.54-.54H278a.26.26,0,0,1,.3.29v.74a.26.26,0,0,1-.3.29h-6.3v5.54h6a.26.26,0,0,1,.29.3v.75a.26.26,0,0,1-.29.3h-6v6h6.55c.2,0,.3.09.3.29V115a.26.26,0,0,1-.3.29Z"/><path class="cls-5" d="M291.09,114.94a.25.25,0,0,1-.29.29H290a.25.25,0,0,1-.29-.29v-6.62a4.18,4.18,0,0,0-.7-2.74,2.42,2.42,0,0,0-2-.81,3.39,3.39,0,0,0-2.59,1,3.67,3.67,0,0,0-.9,2.64v6.58a.25.25,0,0,1-.29.29h-.84a.25.25,0,0,1-.29-.29v-8.4c0-.61,0-1.08,0-1.41s0-.66-.06-1a.21.21,0,0,1,.08-.22.32.32,0,0,1,.22-.07h.75a.26.26,0,0,1,.3.29v1.16A3.71,3.71,0,0,1,284.8,104a5.15,5.15,0,0,1,2.28-.42,3.8,3.8,0,0,1,3,1.16,4.79,4.79,0,0,1,1,3.25Z"/><path class="cls-5" d="M295.34,118a.24.24,0,0,1-.21-.31l.06-.93q0-.27.27-.12a8.41,8.41,0,0,0,1.54.51,7.85,7.85,0,0,0,1.59.16,3.5,3.5,0,0,0,2.87-1.17,5.46,5.46,0,0,0,1.08-3.18,3.19,3.19,0,0,1-1.43,1.43,4.57,4.57,0,0,1-2.1.48,4.69,4.69,0,0,1-1.91-.38,4.45,4.45,0,0,1-1.53-1.07,4.9,4.9,0,0,1-1-1.68,6.08,6.08,0,0,1-.38-2.18,11.13,11.13,0,0,1,.26-2.51,5,5,0,0,1,.83-1.86,3.64,3.64,0,0,1,1.47-1.15,5.32,5.32,0,0,1,2.19-.4,5,5,0,0,1,2,.36,5.46,5.46,0,0,1,1.73,1.32l0-1.14a.26.26,0,0,1,.29-.29h.8a.26.26,0,0,1,.3.29v8.4a8.28,8.28,0,0,1-.35,2.47,5,5,0,0,1-1,1.87,4.43,4.43,0,0,1-1.69,1.17,6,6,0,0,1-2.31.41,10.25,10.25,0,0,1-1.66-.11A11.56,11.56,0,0,1,295.34,118Zm7.22-8.48a5.69,5.69,0,0,0-.92-3.47,3.3,3.3,0,0,0-5.06-.08,5.9,5.9,0,0,0-.87,3.59,5.2,5.2,0,0,0,.26,1.66,4,4,0,0,0,.69,1.29,3.05,3.05,0,0,0,1,.84,3,3,0,0,0,1.32.3,3.31,3.31,0,0,0,1.39-.3,3.24,3.24,0,0,0,1.12-.86,4.31,4.31,0,0,0,.75-1.31A4.94,4.94,0,0,0,302.56,109.5Z"/><path class="cls-5" d="M308.78,115.23h-.93a.26.26,0,0,1-.29-.29V98.83a.26.26,0,0,1,.29-.3h.93a.26.26,0,0,1,.29.3v16.11A.26.26,0,0,1,308.78,115.23Z"/><path class="cls-5" d="M312.35,99.9a1,1,0,0,1,.29-.73.94.94,0,0,1,.71-.3,1,1,0,0,1,.73.3,1,1,0,0,1,.3.73.94.94,0,0,1-.3.71,1,1,0,0,1-.73.3,1,1,0,0,1-1-1Zm1.49,15.33h-.93a.26.26,0,0,1-.29-.29V104.16a.26.26,0,0,1,.29-.29h.93a.26.26,0,0,1,.29.29v10.78A.26.26,0,0,1,313.84,115.23Z"/><path class="cls-5" d="M317.15,113.84a7,7,0,0,0,2.65.53,3,3,0,0,0,1.87-.56,1.78,1.78,0,0,0,.73-1.5,1.69,1.69,0,0,0-.4-1.06,3.56,3.56,0,0,0-1-.85c-.44-.24-.88-.47-1.34-.68s-.89-.45-1.31-.69a2.8,2.8,0,0,1-1.11-1,2.52,2.52,0,0,1-.36-1.29,2.94,2.94,0,0,1,1.09-2.35,3.54,3.54,0,0,1,1.18-.59,5.49,5.49,0,0,1,1.43-.19,9.2,9.2,0,0,1,1.38.09,8,8,0,0,1,1.18.25.61.61,0,0,1,.22.13.23.23,0,0,1,.07.23l-.06.63a.23.23,0,0,1-.13.21.26.26,0,0,1-.21,0,5.07,5.07,0,0,0-1-.27,11.06,11.06,0,0,0-1.26-.07c-1.62,0-2.43.65-2.43,1.93a1.24,1.24,0,0,0,.32.8,3.52,3.52,0,0,0,1.11.76l1.32.64q.65.3,1.41.72a2.9,2.9,0,0,1,1.08,1.09,3.2,3.2,0,0,1,.43,1.6,2.89,2.89,0,0,1-1.24,2.46,4.43,4.43,0,0,1-1.3.6,5.9,5.9,0,0,1-1.51.19c-.31,0-.59,0-.83,0s-.48,0-.7-.06l-.66-.1c-.22,0-.46-.1-.71-.17a.36.36,0,0,1-.28-.38l.09-.78Q316.87,113.72,317.15,113.84Z"/><path class="cls-5" d="M335.61,114.94a.25.25,0,0,1-.29.29h-.84a.25.25,0,0,1-.29-.29v-6.47a7,7,0,0,0-.18-1.71,3,3,0,0,0-.52-1.14,1.85,1.85,0,0,0-.82-.62,3,3,0,0,0-1.07-.19,3.85,3.85,0,0,0-2.63.82,2.9,2.9,0,0,0-.92,2.27v7a.25.25,0,0,1-.29.29h-.84a.25.25,0,0,1-.29-.29V98.81c0-.2.09-.3.29-.3h.84c.2,0,.29.1.29.3v6.09a3.41,3.41,0,0,1,1.46-1,6.78,6.78,0,0,1,2.18-.3,3.59,3.59,0,0,1,3,1.19,5.83,5.83,0,0,1,.94,3.64Z"/><path class="cls-5" d="M351.36,115.31c-.42.07-.83.12-1.22.15s-.86,0-1.41,0a5.52,5.52,0,0,1-2.32-.46,5.08,5.08,0,0,1-1.72-1.26,5.49,5.49,0,0,1-1.08-1.89,6.94,6.94,0,0,1-.38-2.35,6.64,6.64,0,0,1,.4-2.36,5.15,5.15,0,0,1,1.14-1.87,5.27,5.27,0,0,1,1.79-1.24,5.81,5.81,0,0,1,2.34-.45,12.27,12.27,0,0,1,1.26,0,8.58,8.58,0,0,1,1.22.2.35.35,0,0,1,.27.4l-.06.67c0,.17-.14.23-.32.19a7.16,7.16,0,0,0-1-.24,7.62,7.62,0,0,0-1.11-.08,4.74,4.74,0,0,0-1.88.35,3.74,3.74,0,0,0-1.36,1,4.17,4.17,0,0,0-.81,1.5,6.06,6.06,0,0,0-.28,1.9,5.66,5.66,0,0,0,.29,1.8,4.67,4.67,0,0,0,.81,1.53,4.05,4.05,0,0,0,1.31,1,3.79,3.79,0,0,0,1.75.39,9.92,9.92,0,0,0,1.22-.07,8.26,8.26,0,0,0,1.09-.23c.21-.05.32,0,.34.15l.06.78A.32.32,0,0,1,351.36,115.31Z"/><path class="cls-5" d="M355.45,115.23h-.92a.26.26,0,0,1-.3-.29V98.83a.27.27,0,0,1,.3-.3h.92c.2,0,.29.1.29.3v16.11A.25.25,0,0,1,355.45,115.23Z"/><path class="cls-5" d="M359.8,105.63a.25.25,0,0,1-.2,0,.13.13,0,0,1-.1-.13v-.8a.47.47,0,0,1,.3-.44,5.39,5.39,0,0,1,1.56-.56,10.27,10.27,0,0,1,1.82-.16,4.11,4.11,0,0,1,3.06,1,4.16,4.16,0,0,1,1,3v5.28c0,.42,0,.79,0,1.12s0,.65.06,1a.25.25,0,0,1-.29.29h-.76a.26.26,0,0,1-.29-.29v-1.62a3.36,3.36,0,0,1-1.48,1.66,4.53,4.53,0,0,1-2.26.58,3.76,3.76,0,0,1-3.11-1.23,2.93,2.93,0,0,1-.5-1,3.87,3.87,0,0,1-.17-1.1A4,4,0,0,1,359,110a3.57,3.57,0,0,1,1.84-1.38,14.41,14.41,0,0,1,4.64-.55h.27v-.63a3,3,0,0,0-.6-2,2.51,2.51,0,0,0-2-.69,7.92,7.92,0,0,0-1.79.2A5.26,5.26,0,0,0,359.8,105.63Zm6,3.68h-.4a11.45,11.45,0,0,0-2.09.09,7.69,7.69,0,0,0-1.52.37,2.64,2.64,0,0,0-1.32.93,2.47,2.47,0,0,0-.44,1.48,2.62,2.62,0,0,0,.17,1,1.38,1.38,0,0,0,.52.7,2.59,2.59,0,0,0,1.68.51,3.18,3.18,0,0,0,2.44-1.14,3.93,3.93,0,0,0,.71-1.35,6.2,6.2,0,0,0,.25-1.86Z"/><path class="cls-5" d="M370.19,113.84a7,7,0,0,0,2.65.53,3,3,0,0,0,1.87-.56,1.78,1.78,0,0,0,.73-1.5,1.65,1.65,0,0,0-.41-1.06,3.39,3.39,0,0,0-1-.85c-.44-.24-.88-.47-1.34-.68s-.89-.45-1.31-.69a2.74,2.74,0,0,1-1.11-1,2.52,2.52,0,0,1-.36-1.29,2.86,2.86,0,0,1,1.09-2.35,3.54,3.54,0,0,1,1.18-.59,5.49,5.49,0,0,1,1.43-.19,9.2,9.2,0,0,1,1.38.09,8.27,8.27,0,0,1,1.18.25.71.71,0,0,1,.22.13.23.23,0,0,1,.07.23l-.06.63a.25.25,0,0,1-.13.21.26.26,0,0,1-.21,0,5.07,5.07,0,0,0-1.05-.27,11.06,11.06,0,0,0-1.26-.07c-1.62,0-2.43.65-2.43,1.93a1.19,1.19,0,0,0,.32.8,3.58,3.58,0,0,0,1.1.76l1.33.64c.43.2.9.44,1.4.72a2.85,2.85,0,0,1,1.09,1.09,3.2,3.2,0,0,1,.43,1.6,3,3,0,0,1-.34,1.45,2.91,2.91,0,0,1-.9,1,4.43,4.43,0,0,1-1.3.6,5.92,5.92,0,0,1-1.52.19c-.3,0-.58,0-.83,0s-.47,0-.69-.06l-.66-.1c-.22,0-.46-.1-.71-.17a.36.36,0,0,1-.28-.38l.09-.78C369.88,113.83,370,113.76,370.19,113.84Z"/><path class="cls-5" d="M379.1,113.84a6.88,6.88,0,0,0,2.64.53,3,3,0,0,0,1.87-.56,1.79,1.79,0,0,0,.74-1.5,1.71,1.71,0,0,0-.41-1.06,3.56,3.56,0,0,0-1-.85c-.43-.24-.88-.47-1.33-.68s-.9-.45-1.32-.69a2.8,2.8,0,0,1-1.11-1,2.52,2.52,0,0,1-.36-1.29,3,3,0,0,1,.3-1.36,2.85,2.85,0,0,1,.8-1,3.39,3.39,0,0,1,1.17-.59,5.55,5.55,0,0,1,1.43-.19,9.44,9.44,0,0,1,1.39.09,8.14,8.14,0,0,1,1.17.25.54.54,0,0,1,.22.13.23.23,0,0,1,.08.23l-.07.63a.23.23,0,0,1-.12.21.26.26,0,0,1-.21,0,5.07,5.07,0,0,0-1.05-.27,11.06,11.06,0,0,0-1.26-.07c-1.63,0-2.44.65-2.44,1.93a1.2,1.2,0,0,0,.33.8,3.35,3.35,0,0,0,1.1.76l1.32.64c.44.2.9.44,1.41.72a2.9,2.9,0,0,1,1.08,1.09,3.1,3.1,0,0,1,.43,1.6,2.89,2.89,0,0,1-1.24,2.46,4.43,4.43,0,0,1-1.3.6,5.84,5.84,0,0,1-1.51.19c-.31,0-.59,0-.83,0a6.83,6.83,0,0,1-.69-.06l-.67-.1c-.22,0-.46-.1-.71-.17a.34.34,0,0,1-.27-.38l.08-.78C378.79,113.83,378.9,113.76,379.1,113.84Z"/><path class="cls-5" d="M393.26,106.42a.58.58,0,0,1,0,.26v.93a.21.21,0,0,1-.29.29h-4.92a.21.21,0,0,1-.29-.29v-.93a.21.21,0,0,1,.29-.29H393A.58.58,0,0,1,393.26,106.42Z"/><path class="cls-5" d="M33.85,130.35a3.39,3.39,0,0,0-1-.13,2.44,2.44,0,0,0-2.31,1.54,7,7,0,0,0-.59,3.06v5.32a.26.26,0,0,1-.29.29h-.82a.25.25,0,0,1-.29-.29v-8.53c0-.5,0-.91,0-1.23s0-.65,0-1a.26.26,0,0,1,.3-.29h.77a.26.26,0,0,1,.3.29v2.06c.68-1.76,1.69-2.65,3-2.65a4,4,0,0,1,1,.13.52.52,0,0,1,.22.14.36.36,0,0,1,.09.26v.88a.16.16,0,0,1-.1.17A.26.26,0,0,1,33.85,130.35Z"/><path class="cls-5" d="M46,134.76a7.11,7.11,0,0,1-.36,2.3,6.76,6.76,0,0,1-.94,1.86A5.06,5.06,0,0,1,43,140.28a5.38,5.38,0,0,1-2.32.49,5.46,5.46,0,0,1-2.33-.49,5,5,0,0,1-1.76-1.36,6.25,6.25,0,0,1-.94-1.86,7.39,7.39,0,0,1-.34-2.3,6.47,6.47,0,0,1,1.28-4.16,5,5,0,0,1,4.09-1.83,5.51,5.51,0,0,1,2.33.46,4.7,4.7,0,0,1,1.75,1.37A6.58,6.58,0,0,1,46,134.76Zm-1.56,0a6.18,6.18,0,0,0-.26-1.85,5.68,5.68,0,0,0-.72-1.53A3.49,3.49,0,0,0,40.63,130a3.53,3.53,0,0,0-1.58.35,3.71,3.71,0,0,0-1.25,1,5.19,5.19,0,0,0-.75,1.53,6.51,6.51,0,0,0-.26,1.85,6.6,6.6,0,0,0,.26,1.87,4.85,4.85,0,0,0,.75,1.51,3.49,3.49,0,0,0,2.83,1.37,3.45,3.45,0,0,0,1.59-.36,4.12,4.12,0,0,0,1.25-1,5.28,5.28,0,0,0,.72-1.51A6.26,6.26,0,0,0,44.45,134.76Z"/><path class="cls-5" d="M58.73,134.76a7.39,7.39,0,0,1-.35,2.3,6.78,6.78,0,0,1-1,1.86,5,5,0,0,1-1.75,1.36,5.76,5.76,0,0,1-4.65,0,5,5,0,0,1-1.77-1.36,6.48,6.48,0,0,1-.93-1.86,7.39,7.39,0,0,1-.35-2.3,6.53,6.53,0,0,1,1.28-4.16,5,5,0,0,1,4.1-1.83,5.51,5.51,0,0,1,2.33.46,4.67,4.67,0,0,1,1.74,1.37A6.52,6.52,0,0,1,58.73,134.76Zm-1.55,0a6.51,6.51,0,0,0-.26-1.85,5.7,5.7,0,0,0-.73-1.53A3.47,3.47,0,0,0,53.36,130a3.57,3.57,0,0,0-1.59.35,3.81,3.81,0,0,0-1.25,1,5.17,5.17,0,0,0-.74,1.53,6.18,6.18,0,0,0-.27,1.85,6.26,6.26,0,0,0,.27,1.87,4.84,4.84,0,0,0,.74,1.51,3.51,3.51,0,0,0,2.84,1.37,3.4,3.4,0,0,0,1.58-.36,4,4,0,0,0,1.25-1,5.3,5.3,0,0,0,.73-1.51A6.6,6.6,0,0,0,57.18,134.76Z"/><path class="cls-5" d="M61.61,131.74c0-.59,0-1.06,0-1.4s0-.67-.06-1a.25.25,0,0,1,.29-.29h.78a.26.26,0,0,1,.29.29v1.14a3.49,3.49,0,0,1,1.3-1.23,4.16,4.16,0,0,1,2-.45,3.86,3.86,0,0,1,2.2.62,2.59,2.59,0,0,1,1.16,1.81A3.46,3.46,0,0,1,71,129.44a4,4,0,0,1,2.25-.62,3.52,3.52,0,0,1,1.48.29,3.48,3.48,0,0,1,1.14.81,3.57,3.57,0,0,1,.72,1.21,4.2,4.2,0,0,1,.25,1.47v7.54a.25.25,0,0,1-.29.29h-.8c-.19,0-.29-.09-.29-.27v-7.27c0-1.92-.81-2.88-2.42-2.88a2.6,2.6,0,0,0-1.31.33,3.21,3.21,0,0,0-1,.89,4.22,4.22,0,0,0-.61,1.32,5.62,5.62,0,0,0-.17,1.6v6a.26.26,0,0,1-.3.29h-.84a.26.26,0,0,1-.29-.29v-7.25c0-1.92-.81-2.88-2.44-2.88a2.82,2.82,0,0,0-2.24.93,3.51,3.51,0,0,0-.82,2.43v6.77a.26.26,0,0,1-.3.29H61.9a.26.26,0,0,1-.29-.29Z"/><path class="cls-5" d="M89.9,140.43H89a.26.26,0,0,1-.29-.29V124a.26.26,0,0,1,.29-.3h.93a.26.26,0,0,1,.29.3v16.11A.26.26,0,0,1,89.9,140.43Z"/><path class="cls-5" d="M93.47,125.1a1,1,0,0,1,.29-.72.93.93,0,0,1,.71-.31,1,1,0,0,1,1,1,.94.94,0,0,1-.3.71,1,1,0,0,1-.73.3,1,1,0,0,1-.71-.3A.94.94,0,0,1,93.47,125.1ZM95,140.43H94a.26.26,0,0,1-.29-.29V129.36a.26.26,0,0,1,.29-.29H95a.26.26,0,0,1,.29.29v10.78A.26.26,0,0,1,95,140.43Z"/><path class="cls-5" d="M102.58,134.13l4.53,6a.24.24,0,0,1,0,.19.14.14,0,0,1-.15.1h-.9a1.12,1.12,0,0,1-.38-.06.6.6,0,0,1-.27-.23l-3.78-5-1.41,1.57v3.43a.26.26,0,0,1-.3.29h-.84a.26.26,0,0,1-.29-.29V124a.26.26,0,0,1,.29-.3H100a.27.27,0,0,1,.3.3V135l4.79-5.59a.94.94,0,0,1,.69-.29h1a.15.15,0,0,1,.16.09c0,.07,0,.13-.06.2Z"/><path class="cls-5" d="M110.47,135.16a5.62,5.62,0,0,0,.25,1.86,3.55,3.55,0,0,0,.76,1.35,3.3,3.3,0,0,0,1.21.84,3.94,3.94,0,0,0,1.56.3,7.9,7.9,0,0,0,1.58-.16,4.85,4.85,0,0,0,1.36-.52c.19-.08.28,0,.28.15v1a.33.33,0,0,1-.23.29,8,8,0,0,1-1.45.41,9.37,9.37,0,0,1-1.64.14,5,5,0,0,1-3.91-1.51,8,8,0,0,1,0-8.83,4.41,4.41,0,0,1,3.51-1.66,4.64,4.64,0,0,1,2,.42,4,4,0,0,1,1.47,1.26,6.76,6.76,0,0,1,1.07,4c0,.19,0,.33,0,.42a.29.29,0,0,1-.08.21.3.3,0,0,1-.22.08h-7.55Zm6.3-1.2a6.48,6.48,0,0,0-.16-1.53,4.07,4.07,0,0,0-.53-1.22,2.5,2.5,0,0,0-2.25-1.24,2.93,2.93,0,0,0-2.45,1.26,5.81,5.81,0,0,0-.63,1.3,5,5,0,0,0-.28,1.43Z"/><path class="cls-5" d="M128.26,143.54a.25.25,0,0,1-.21-.32l.06-.71c0-.17.09-.22.25-.15a2.13,2.13,0,0,0,.78.13,2.29,2.29,0,0,0,.81-.14,1.22,1.22,0,0,0,.56-.37,4.43,4.43,0,0,0,.51-1c.19-.45.38-1,.56-1.54-.63-1.7-1.26-3.39-1.87-5.06s-1.24-3.35-1.87-5.06a.23.23,0,0,1,0-.2.17.17,0,0,1,.17-.09h1a.45.45,0,0,1,.42.29l2.83,8.15,1.48-4.08c.47-1.3,1-2.65,1.48-4.07a.41.41,0,0,1,.42-.29h.9a.17.17,0,0,1,.17.09.23.23,0,0,1,0,.2l-4.37,11.72a6.49,6.49,0,0,1-.51,1.09,4,4,0,0,1-.58.78,2.34,2.34,0,0,1-.84.53,2.64,2.64,0,0,1-1,.18,5.06,5.06,0,0,1-.57,0A4.49,4.49,0,0,1,128.26,143.54Z"/><path class="cls-5" d="M148.84,134.76a7.11,7.11,0,0,1-.36,2.3,6.76,6.76,0,0,1-.94,1.86,5.06,5.06,0,0,1-1.76,1.36,5.38,5.38,0,0,1-2.32.49,5.49,5.49,0,0,1-2.33-.49,5.06,5.06,0,0,1-1.76-1.36,6.76,6.76,0,0,1-.94-1.86,7.39,7.39,0,0,1-.34-2.3,6.47,6.47,0,0,1,1.28-4.16,5,5,0,0,1,4.09-1.83,5.47,5.47,0,0,1,2.33.46,4.62,4.62,0,0,1,1.75,1.37A6.52,6.52,0,0,1,148.84,134.76Zm-1.55,0a6.18,6.18,0,0,0-.27-1.85,5.39,5.39,0,0,0-.72-1.53,3.48,3.48,0,0,0-2.84-1.35,3.56,3.56,0,0,0-1.58.35,3.71,3.71,0,0,0-1.25,1,5.45,5.45,0,0,0-.75,1.53,6.51,6.51,0,0,0-.26,1.85,6.6,6.6,0,0,0,.26,1.87,5.08,5.08,0,0,0,.75,1.51,3.5,3.5,0,0,0,2.83,1.37,3.45,3.45,0,0,0,1.59-.36,4.12,4.12,0,0,0,1.25-1,5,5,0,0,0,.72-1.51A6.26,6.26,0,0,0,147.29,134.76Z"/><path class="cls-5" d="M160.73,140.14a.26.26,0,0,1-.3.29h-.75a.26.26,0,0,1-.3-.29v-1.75a3.79,3.79,0,0,1-1.46,1.82,4.35,4.35,0,0,1-2.3.56c-2.62,0-3.92-1.47-3.92-4.39v-7a.25.25,0,0,1,.29-.29h.84a.26.26,0,0,1,.29.29V136q0,3.57,2.73,3.57a3,3,0,0,0,1.44-.35,3.15,3.15,0,0,0,1.08-.94,4.45,4.45,0,0,0,.68-1.4,5.78,5.78,0,0,0,.21-1.68v-5.84a.25.25,0,0,1,.29-.29h.84a.26.26,0,0,1,.29.29v8.44c0,.47,0,.88,0,1.24S160.71,139.77,160.73,140.14Z"/><path class="cls-5" d="M184.33,140.2a.31.31,0,0,1-.34.23h-1.24a.32.32,0,0,1-.33-.23l-3-9.66q-.77,2.43-1.55,4.83c-.52,1.59-1,3.2-1.55,4.81a.34.34,0,0,1-.38.25h-1.16a.61.61,0,0,1-.24,0,.28.28,0,0,1-.13-.21l-3.51-10.82a.21.21,0,0,1,.21-.29h1a.41.41,0,0,1,.38.29l3,9.58L177,134.2q.74-2.31,1.52-4.73a.46.46,0,0,1,.48-.4h1a.47.47,0,0,1,.5.4l2.92,9.47q.8-2.48,1.55-4.79c.49-1.54,1-3.14,1.54-4.79a.51.51,0,0,1,.15-.21.38.38,0,0,1,.23-.08h.84a.23.23,0,0,1,.19.09.21.21,0,0,1,0,.2Z"/><path class="cls-5" d="M200.12,134.76a7.11,7.11,0,0,1-.36,2.3,6.76,6.76,0,0,1-.94,1.86,5.06,5.06,0,0,1-1.76,1.36,5.38,5.38,0,0,1-2.32.49,5.49,5.49,0,0,1-2.33-.49,5.06,5.06,0,0,1-1.76-1.36,6.5,6.5,0,0,1-.94-1.86,7.39,7.39,0,0,1-.34-2.3,6.47,6.47,0,0,1,1.28-4.16,5,5,0,0,1,4.09-1.83,5.47,5.47,0,0,1,2.33.46,4.62,4.62,0,0,1,1.75,1.37A6.52,6.52,0,0,1,200.12,134.76Zm-1.55,0a6.18,6.18,0,0,0-.27-1.85,5.39,5.39,0,0,0-.72-1.53,3.48,3.48,0,0,0-2.84-1.35,3.56,3.56,0,0,0-1.58.35,3.71,3.71,0,0,0-1.25,1,5.45,5.45,0,0,0-.75,1.53,6.51,6.51,0,0,0-.26,1.85,6.6,6.6,0,0,0,.26,1.87,5.08,5.08,0,0,0,.75,1.51,3.5,3.5,0,0,0,2.83,1.37,3.45,3.45,0,0,0,1.59-.36,4.12,4.12,0,0,0,1.25-1,5,5,0,0,0,.72-1.51A6.26,6.26,0,0,0,198.57,134.76Z"/><path class="cls-5" d="M212,140.14a.26.26,0,0,1-.3.29H211a.26.26,0,0,1-.3-.29v-1.75a3.79,3.79,0,0,1-1.46,1.82,4.35,4.35,0,0,1-2.3.56c-2.62,0-3.92-1.47-3.92-4.39v-7a.25.25,0,0,1,.29-.29h.84a.26.26,0,0,1,.29.29V136q0,3.57,2.73,3.57a3,3,0,0,0,1.44-.35,3.15,3.15,0,0,0,1.08-.94,4.45,4.45,0,0,0,.68-1.4,5.78,5.78,0,0,0,.21-1.68v-5.84a.25.25,0,0,1,.29-.29h.84a.25.25,0,0,1,.29.29v8.44c0,.47,0,.88,0,1.24S212,139.77,212,140.14Z"/><path class="cls-5" d="M216.92,140.43H216a.26.26,0,0,1-.3-.29V124a.27.27,0,0,1,.3-.3h.92c.2,0,.29.1.29.3v16.11A.25.25,0,0,1,216.92,140.43Z"/><path class="cls-5" d="M229.88,140.14a.26.26,0,0,1-.3.29h-.82a.26.26,0,0,1-.29-.29v-1.58a3.83,3.83,0,0,1-3.65,2.14,4.1,4.1,0,0,1-3.51-1.72,7.08,7.08,0,0,1-1.16-4.24c0-3.94,1.56-5.9,4.67-5.9a4.85,4.85,0,0,1,2.23.5,3.34,3.34,0,0,1,1.42,1.3V124a.26.26,0,0,1,.29-.3h.82a.27.27,0,0,1,.3.3Zm-8.17-5.4a9.73,9.73,0,0,0,.15,1.79,4.75,4.75,0,0,0,.5,1.42,3.37,3.37,0,0,0,1.12,1.16,3.07,3.07,0,0,0,1.59.4,2.52,2.52,0,0,0,1.48-.45,3.82,3.82,0,0,0,1.07-1.12,5,5,0,0,0,.64-1.53,7,7,0,0,0,.21-1.67,7.38,7.38,0,0,0-.22-1.87,4.94,4.94,0,0,0-.65-1.49,3.22,3.22,0,0,0-1.06-1,2.91,2.91,0,0,0-1.47-.36,3,3,0,0,0-2.71,1.54,4.79,4.79,0,0,0-.5,1.41A9.7,9.7,0,0,0,221.71,134.74Z"/><path class="cls-5" d="M242,130.83a.24.24,0,0,1-.2,0,.12.12,0,0,1-.09-.13v-.8a.47.47,0,0,1,.29-.44,5.35,5.35,0,0,1,1.57-.56,10.16,10.16,0,0,1,1.81-.16,4.13,4.13,0,0,1,3.07,1,4.21,4.21,0,0,1,1,3v5.27c0,.42,0,.79,0,1.12s0,.65.06,1a.26.26,0,0,1-.3.29h-.75a.25.25,0,0,1-.29-.29v-1.62a3.34,3.34,0,0,1-1.49,1.66,4.5,4.5,0,0,1-2.25.59,3.75,3.75,0,0,1-3.11-1.24,2.76,2.76,0,0,1-.5-1,3.55,3.55,0,0,1-.17-1.1,4,4,0,0,1,.6-2.21,3.54,3.54,0,0,1,1.83-1.38,14.45,14.45,0,0,1,4.64-.55H248v-.63a3,3,0,0,0-.6-2,2.54,2.54,0,0,0-2-.69,7.83,7.83,0,0,0-1.78.2A5.42,5.42,0,0,0,242,130.83Zm6,3.68h-.4a11.41,11.41,0,0,0-2.09.09A7.51,7.51,0,0,0,244,135a2.71,2.71,0,0,0-1.33.93,2.54,2.54,0,0,0-.44,1.48,2.84,2.84,0,0,0,.17,1,1.4,1.4,0,0,0,.53.7,2.54,2.54,0,0,0,1.67.51,3.14,3.14,0,0,0,2.44-1.14,3.78,3.78,0,0,0,.72-1.35,6.54,6.54,0,0,0,.25-1.86Z"/><path class="cls-5" d="M258.27,140.45a5.19,5.19,0,0,1-1.75.32,2.25,2.25,0,0,1-2.24-1.12,6.82,6.82,0,0,1-.36-2.66v-6.7h-2a.27.27,0,0,1-.3-.3v-.63a.26.26,0,0,1,.3-.29h2v-2.84c0-.21.09-.31.27-.31h.88c.19,0,.28.1.28.31v2.84h2.33a.26.26,0,0,1,.29.29V130a.26.26,0,0,1-.29.3h-2.33v7.41c0,1.25.5,1.87,1.51,1.87a4.34,4.34,0,0,0,1.32-.25.23.23,0,0,1,.2,0,.15.15,0,0,1,.1.16l0,.55A.36.36,0,0,1,258.27,140.45Z"/><path class="cls-5" d="M277.61,140.14a.26.26,0,0,1-.3.29h-.84a.26.26,0,0,1-.29-.29v-6.47A7,7,0,0,0,276,132a3.17,3.17,0,0,0-.51-1.14,2.06,2.06,0,0,0-.82-.62,3.1,3.1,0,0,0-1.08-.19,3.85,3.85,0,0,0-2.63.82,2.89,2.89,0,0,0-.91,2.27v7a.26.26,0,0,1-.3.29h-.84a.26.26,0,0,1-.29-.29V124a.26.26,0,0,1,.29-.3h.84a.27.27,0,0,1,.3.3v6.09a3.29,3.29,0,0,1,1.46-1,6.72,6.72,0,0,1,2.17-.3,3.58,3.58,0,0,1,3,1.19,5.82,5.82,0,0,1,.95,3.64Z"/><path class="cls-5" d="M291.21,134.76a7.39,7.39,0,0,1-.35,2.3,6.78,6.78,0,0,1-.95,1.86,5,5,0,0,1-1.75,1.36,5.76,5.76,0,0,1-4.65,0,5,5,0,0,1-1.77-1.36,6.48,6.48,0,0,1-.93-1.86,7.39,7.39,0,0,1-.35-2.3,6.53,6.53,0,0,1,1.28-4.16,5,5,0,0,1,4.1-1.83,5.51,5.51,0,0,1,2.33.46,4.67,4.67,0,0,1,1.74,1.37A6.52,6.52,0,0,1,291.21,134.76Zm-1.55,0a6.51,6.51,0,0,0-.26-1.85,5.7,5.7,0,0,0-.73-1.53,3.47,3.47,0,0,0-2.83-1.35,3.57,3.57,0,0,0-1.59.35,3.81,3.81,0,0,0-1.25,1,5.17,5.17,0,0,0-.74,1.53,6.18,6.18,0,0,0-.27,1.85,6.26,6.26,0,0,0,.27,1.87,4.84,4.84,0,0,0,.74,1.51,3.51,3.51,0,0,0,2.84,1.37,3.4,3.4,0,0,0,1.58-.36,4,4,0,0,0,1.25-1,5.3,5.3,0,0,0,.73-1.51A6.6,6.6,0,0,0,289.66,134.76Z"/><path class="cls-5" d="M294.09,131.74c0-.59,0-1.06,0-1.4s0-.67-.06-1a.25.25,0,0,1,.29-.29h.78a.26.26,0,0,1,.29.29v1.14a3.49,3.49,0,0,1,1.3-1.23,4.16,4.16,0,0,1,2-.45,3.86,3.86,0,0,1,2.2.62,2.59,2.59,0,0,1,1.16,1.81,3.46,3.46,0,0,1,1.42-1.81,4,4,0,0,1,2.25-.62,3.6,3.6,0,0,1,1.49.29,3.54,3.54,0,0,1,1.13.81,3.42,3.42,0,0,1,.72,1.21,4.21,4.21,0,0,1,.26,1.47v7.54a.26.26,0,0,1-.3.29h-.8c-.19,0-.29-.09-.29-.27v-7.27c0-1.92-.81-2.88-2.42-2.88a2.6,2.6,0,0,0-1.31.33,3.21,3.21,0,0,0-1,.89,4,4,0,0,0-.6,1.32,5.28,5.28,0,0,0-.18,1.6v6a.26.26,0,0,1-.3.29h-.84a.26.26,0,0,1-.29-.29v-7.25c0-1.92-.81-2.88-2.44-2.88a2.82,2.82,0,0,0-2.24.93,3.51,3.51,0,0,0-.82,2.43v6.77a.26.26,0,0,1-.3.29h-.82a.26.26,0,0,1-.29-.29Z"/><path class="cls-5" d="M313.85,135.16a5.91,5.91,0,0,0,.24,1.86,3.57,3.57,0,0,0,.77,1.35,3.22,3.22,0,0,0,1.21.84,3.94,3.94,0,0,0,1.56.3,7.9,7.9,0,0,0,1.58-.16,4.85,4.85,0,0,0,1.36-.52q.27-.12.27.15v1a.32.32,0,0,1-.23.29,7.57,7.57,0,0,1-1.45.41,9.25,9.25,0,0,1-1.63.14,4.93,4.93,0,0,1-3.91-1.51,8,8,0,0,1,0-8.83,4.39,4.39,0,0,1,3.51-1.66,4.57,4.57,0,0,1,2,.42,3.85,3.85,0,0,1,1.47,1.26,6.69,6.69,0,0,1,1.08,4,3.87,3.87,0,0,1,0,.42.29.29,0,0,1-.07.21.32.32,0,0,1-.22.08h-7.55Zm6.3-1.2a6.45,6.45,0,0,0-.17-1.53,3.81,3.81,0,0,0-.52-1.22,2.5,2.5,0,0,0-2.25-1.24,2.94,2.94,0,0,0-2.46,1.26,5.81,5.81,0,0,0-.63,1.3,5,5,0,0,0-.27,1.43Z"/><path class="cls-5" d="M326.89,139.15c.18,0,.28,0,.28.09a.63.63,0,0,1-.05.22l-1.38,3.76a.62.62,0,0,1-.16.22.34.34,0,0,1-.22.06h-.88q-.28,0-.21-.3l1-3.69a.85.85,0,0,1,.13-.25.4.4,0,0,1,.32-.11Z"/><path class="cls-5" d="M344.3,130.35a3.39,3.39,0,0,0-1-.13,2.46,2.46,0,0,0-2.31,1.54,7,7,0,0,0-.59,3.06v5.32a.25.25,0,0,1-.29.29h-.82a.26.26,0,0,1-.29-.29v-8.53c0-.5,0-.91,0-1.23s0-.65,0-1a.25.25,0,0,1,.29-.29H340a.26.26,0,0,1,.29.29v2.06c.69-1.76,1.69-2.65,3-2.65a4,4,0,0,1,1,.13.52.52,0,0,1,.22.14.36.36,0,0,1,.1.26v.88a.17.17,0,0,1-.11.17A.26.26,0,0,1,344.3,130.35Z"/><path class="cls-5" d="M346.3,125.1a1,1,0,0,1,.29-.72.93.93,0,0,1,.71-.31,1,1,0,0,1,1,1,.94.94,0,0,1-.3.71,1,1,0,0,1-.73.3,1,1,0,0,1-.71-.3A.94.94,0,0,1,346.3,125.1Zm1.49,15.33h-.93a.26.26,0,0,1-.29-.29V129.36a.26.26,0,0,1,.29-.29h.93a.26.26,0,0,1,.29.29v10.78A.26.26,0,0,1,347.79,140.43Z"/><path class="cls-5" d="M352.18,143.18a.24.24,0,0,1-.21-.31l.06-.93q0-.27.27-.12a7.84,7.84,0,0,0,1.53.51,7.35,7.35,0,0,0,1.6.16,3.5,3.5,0,0,0,2.87-1.17,5.53,5.53,0,0,0,1.08-3.18,3.19,3.19,0,0,1-1.43,1.43,4.57,4.57,0,0,1-2.1.48,4.69,4.69,0,0,1-1.91-.38,4.45,4.45,0,0,1-1.53-1.07,4.9,4.9,0,0,1-1-1.68,6.08,6.08,0,0,1-.38-2.18,11.13,11.13,0,0,1,.26-2.51,5,5,0,0,1,.83-1.86,3.64,3.64,0,0,1,1.47-1.15,5.32,5.32,0,0,1,2.19-.4,5,5,0,0,1,2,.36,5.46,5.46,0,0,1,1.73,1.32l0-1.14a.26.26,0,0,1,.29-.29h.8a.26.26,0,0,1,.3.29v8.4a8.28,8.28,0,0,1-.35,2.47,5,5,0,0,1-1,1.87,4.43,4.43,0,0,1-1.69,1.17,6,6,0,0,1-2.31.41,10.25,10.25,0,0,1-1.66-.11A11.56,11.56,0,0,1,352.18,143.18Zm7.22-8.48a5.69,5.69,0,0,0-.92-3.47,3.3,3.3,0,0,0-5.06-.08,5.9,5.9,0,0,0-.87,3.59,5.2,5.2,0,0,0,.26,1.66,4,4,0,0,0,.69,1.29,3.05,3.05,0,0,0,1.05.84,3,3,0,0,0,1.32.3,3.31,3.31,0,0,0,1.39-.3,3.24,3.24,0,0,0,1.12-.86,4.31,4.31,0,0,0,.75-1.31A4.94,4.94,0,0,0,359.4,134.7Z"/><path class="cls-5" d="M373.39,140.14a.26.26,0,0,1-.3.29h-.84a.25.25,0,0,1-.29-.29v-6.47a7,7,0,0,0-.18-1.71,3,3,0,0,0-.52-1.14,2,2,0,0,0-.81-.62,3.1,3.1,0,0,0-1.08-.19,3.85,3.85,0,0,0-2.63.82,2.89,2.89,0,0,0-.91,2.27v7a.26.26,0,0,1-.3.29h-.84a.26.26,0,0,1-.29-.29V124a.26.26,0,0,1,.29-.3h.84a.27.27,0,0,1,.3.3v6.09a3.29,3.29,0,0,1,1.46-1,6.72,6.72,0,0,1,2.17-.3,3.58,3.58,0,0,1,3,1.19,5.82,5.82,0,0,1,.95,3.64Z"/><path class="cls-5" d="M382.42,140.45a5.19,5.19,0,0,1-1.75.32,2.27,2.27,0,0,1-2.25-1.12,7.06,7.06,0,0,1-.35-2.66v-6.7h-2a.26.26,0,0,1-.29-.3v-.63a.26.26,0,0,1,.29-.29h2v-2.84c0-.21.09-.31.27-.31h.88c.18,0,.28.1.28.31v2.84h2.33a.26.26,0,0,1,.29.29V130a.26.26,0,0,1-.29.3H379.5v7.41c0,1.25.5,1.87,1.51,1.87a4.34,4.34,0,0,0,1.32-.25.23.23,0,0,1,.2,0,.15.15,0,0,1,.09.16l.05.55A.37.37,0,0,1,382.42,140.45Z"/><path class="cls-5" d="M392.52,128.61a4.38,4.38,0,0,1-.59,2.24,5.15,5.15,0,0,1-.52.72c-.23.28-.5.59-.83.94s-.59.65-.82.94a8,8,0,0,0-.54.78,4.2,4.2,0,0,0-.57,2.13.67.67,0,0,1,0,.27s-.1,0-.24,0h-.86a.5.5,0,0,1-.24,0,.58.58,0,0,1,0-.26,4.9,4.9,0,0,1,.58-2.42,7.15,7.15,0,0,1,.51-.74,9.58,9.58,0,0,1,.79-.9,7.87,7.87,0,0,0,.81-.93,8,8,0,0,0,.54-.79,3.9,3.9,0,0,0,.5-2,2.47,2.47,0,0,0-.8-2,3,3,0,0,0-2.05-.7,8.59,8.59,0,0,0-1.25.11,11.7,11.7,0,0,0-1.59.41q-.33.11-.33-.18l0-.87a.33.33,0,0,1,.28-.35c.56-.14,1.09-.25,1.58-.33a10.26,10.26,0,0,1,1.42-.11,4.51,4.51,0,0,1,3,.94A3.69,3.69,0,0,1,392.52,128.61Zm-5.25,10.19a.94.94,0,0,1,.71-.3,1,1,0,0,1,1,1,.93.93,0,0,1-.31.71,1,1,0,0,1-.72.29.94.94,0,0,1-.71-.29,1,1,0,0,1-.3-.71A1,1,0,0,1,387.27,138.8Z"/></svg>