<svg id="Layer_1" data-name="Layer 1" xmlns="http://www.w3.org/2000/svg" viewBox="0 0 414 514.69"><defs><style>.cls-1{fill:#d1d3d4;}.cls-2{fill:#939598;}.cls-3{fill:#fff;}.cls-4{fill:#010101;}.cls-5,.cls-6{fill:#231f20;}.cls-6{font-size:72px;font-family:SavoyeLetPlain, Savoye LET;}</style></defs><rect class="cls-1" width="414" height="514.69"/><rect class="cls-2" x="88.29" y="374.19" width="246.98" height="3.91"/><rect class="cls-3" x="28.4" y="162.26" width="364" height="210.09"/><path class="cls-2" d="M390.56,164.1V370.51H30.24V164.1H390.56m3.68-3.68H26.56V374.19H394.24V160.42Z"/><path class="cls-4" d="M136.63,403.93v41.39H19.76V403.93c0-21.48,19.66-39,43.83-39H92.8C117,365,136.63,382.45,136.63,403.93ZM78.19,357.67a36.52,36.52,0,1,0-36.52-36.52A36.56,36.56,0,0,0,78.19,357.67Z"/><polygon class="cls-4" points="202.67 284.63 116.03 429.56 116.03 445.32 131.78 435.86 202.67 284.63"/><path class="cls-5" d="M47.12,160.42H26.56v17.44s10.33,3.51,17-2.69S47.12,160.42,47.12,160.42Z"/><path class="cls-5" d="M373.68,160.42h20.56v17.44s-10.33,3.51-17-2.69S373.68,160.42,373.68,160.42Z"/><path class="cls-5" d="M373.68,374.19h20.56V356.75s-10.33-3.51-17,2.68S373.68,374.19,373.68,374.19Z"/><path class="cls-5" d="M47.12,374.19H26.56V356.75s10.33-3.51,17,2.68S47.12,374.19,47.12,374.19Z"/><text class="cls-6" transform="translate(46.82 236.04)">so stop swallowing</text><text class="cls-6" transform="translate(217.97 310.87)">your S’s</text><path class="cls-5" d="M34.48,112.86a7.2,7.2,0,0,1-3.36.8c-2.69,0-3.86-1.83-3.86-4.08,0-3.06,2.27-6.52,5.54-6.52,1.93,0,3,1.15,3,2.6,0,2.67-3,3.37-6.76,3.3a4.27,4.27,0,0,0,.21,1.93,2.29,2.29,0,0,0,2.26,1.37,5.56,5.56,0,0,0,2.73-.7Zm-1.93-8.45c-1.65,0-2.91,1.62-3.33,3.21,2.74,0,4.88-.33,4.88-1.91C34.1,104.87,33.46,104.41,32.55,104.41Z"/><path class="cls-5" d="M39,103.29l.88,5.78c.15,1.16.28,1.94.32,2.5h.06c.22-.54.49-1.21,1.08-2.37l3.1-5.91h1.91l-5.65,10.15H39l-1.75-10.15Z"/><path class="cls-5" d="M53.44,112.86a7.15,7.15,0,0,1-3.35.8c-2.7,0-3.87-1.83-3.87-4.08,0-3.06,2.27-6.52,5.54-6.52,1.93,0,3,1.15,3,2.6,0,2.67-3,3.37-6.75,3.3a4.12,4.12,0,0,0,.2,1.93,2.3,2.3,0,0,0,2.26,1.37,5.64,5.64,0,0,0,2.74-.7Zm-1.92-8.45c-1.66,0-2.91,1.62-3.34,3.21,2.74,0,4.88-.33,4.88-1.91C53.06,104.87,52.42,104.41,51.52,104.41Z"/><path class="cls-5" d="M55.63,113.44,57,106.25c.23-1.13.36-2.12.48-3H59l-.26,2h0a4.5,4.5,0,0,1,3.77-2.22,2.49,2.49,0,0,1,2.57,2.82,10.24,10.24,0,0,1-.18,1.64l-1.13,5.92H62.1l1.11-5.86a7.84,7.84,0,0,0,.14-1.3c0-1-.39-1.77-1.59-1.77s-3,1.49-3.47,4l-.92,4.93Z"/><path class="cls-5" d="M81,113.44l1.94-10.15h1.74L82.7,113.44Zm2.26-13a1.15,1.15,0,0,1,1.15-1.17,1,1,0,0,1,1,1.09,1.15,1.15,0,0,1-1.18,1.17A1,1,0,0,1,83.22,100.45Z"/><path class="cls-5" d="M86,113.44l1.66-8.78H86.32l.26-1.37h1.36l.1-.54a6.15,6.15,0,0,1,1.66-3.54,3.65,3.65,0,0,1,2.41-.9,2.91,2.91,0,0,1,1.4.27L93.13,100a2.38,2.38,0,0,0-1-.2c-1.38,0-2.06,1.35-2.35,3l-.09.49h2.26l-.26,1.37H89.41l-1.67,8.78Z"/><path class="cls-5" d="M110.37,100.56l-.52,2.73h2.43l-.28,1.36h-2.42l-.94,4.94a8.53,8.53,0,0,0-.2,1.62.86.86,0,0,0,1,1,3.35,3.35,0,0,0,.82-.08l-.08,1.37a4.21,4.21,0,0,1-1.35.19,1.89,1.89,0,0,1-2.14-2,9.4,9.4,0,0,1,.23-1.91l1-5.14h-1.46l.27-1.36h1.46l.42-2.29Z"/><path class="cls-5" d="M112.4,113.44l2.83-14.9H117l-1.26,6.54h0a4.37,4.37,0,0,1,3.63-2,2.46,2.46,0,0,1,2.52,2.72,9.83,9.83,0,0,1-.16,1.72l-1.13,5.94h-1.74l1.11-5.86a7.4,7.4,0,0,0,.14-1.4,1.48,1.48,0,0,0-1.58-1.67c-1.35,0-3,1.57-3.46,3.85l-.94,5.08Z"/><path class="cls-5" d="M123.61,113.44l1.94-10.15h1.74l-1.94,10.15Zm2.26-13A1.15,1.15,0,0,1,127,99.28a1,1,0,0,1,1,1.09,1.15,1.15,0,0,1-1.18,1.17A1,1,0,0,1,125.87,100.45Z"/><path class="cls-5" d="M128.51,111.68a4.57,4.57,0,0,0,2.18.63,1.76,1.76,0,0,0,1.93-1.66c0-.79-.35-1.29-1.41-1.87a3,3,0,0,1-1.83-2.59c0-1.77,1.54-3.13,3.68-3.13a4.22,4.22,0,0,1,2.11.5l-.49,1.32a3.54,3.54,0,0,0-1.75-.46,1.63,1.63,0,0,0-1.81,1.52c0,.75.49,1.2,1.4,1.71a3.16,3.16,0,0,1,1.89,2.67c0,2.13-1.73,3.34-3.88,3.34A4.52,4.52,0,0,1,128,113Z"/><path class="cls-5" d="M152.77,103.29l.36,5.71a26.62,26.62,0,0,1,.05,2.73h0a26.87,26.87,0,0,1,1.11-2.55l3-5.89h1.52l.64,5.79a24.81,24.81,0,0,1,.16,2.65h0c.27-.82.55-1.6,1-2.57l2.74-5.87h1.78l-5,10.15h-1.62l-.67-5.51a25.16,25.16,0,0,1-.15-2.71h0c-.43,1-.72,1.75-1.18,2.66l-2.91,5.56H152l-.93-10.15Z"/><path class="cls-5" d="M171.59,113.44a22.48,22.48,0,0,1,.23-2.62h0c-1.09,2.11-2.5,2.85-3.93,2.85-1.8,0-2.92-1.42-2.92-3.35a7.08,7.08,0,0,1,7-7.26,10.35,10.35,0,0,1,2.74.38l-1,5.3a22.3,22.3,0,0,0-.43,4.7Zm1.13-8.85a4,4,0,0,0-1.21-.14c-2.63,0-4.77,2.73-4.78,5.56,0,1.13.39,2.24,1.73,2.24s3.16-1.9,3.67-4.6Z"/><path class="cls-5" d="M176,111.68a4.57,4.57,0,0,0,2.18.63,1.76,1.76,0,0,0,1.93-1.66c0-.79-.35-1.29-1.41-1.87a3,3,0,0,1-1.83-2.59c0-1.77,1.54-3.13,3.68-3.13a4.22,4.22,0,0,1,2.11.5l-.49,1.32a3.54,3.54,0,0,0-1.75-.46,1.63,1.63,0,0,0-1.81,1.52c0,.75.49,1.2,1.4,1.71a3.16,3.16,0,0,1,1.89,2.67c0,2.13-1.73,3.34-3.88,3.34a4.52,4.52,0,0,1-2.52-.69Z"/><path class="cls-5" d="M204.54,113.44a22.48,22.48,0,0,1,.23-2.62h-.05c-1.09,2.11-2.5,2.85-3.93,2.85-1.8,0-2.92-1.42-2.92-3.35a7.08,7.08,0,0,1,7-7.26,10.35,10.35,0,0,1,2.74.38l-1,5.3a22.3,22.3,0,0,0-.43,4.7Zm1.13-8.85a4,4,0,0,0-1.21-.14c-2.63,0-4.77,2.73-4.78,5.56,0,1.13.39,2.24,1.73,2.24s3.16-1.9,3.67-4.6Z"/><path class="cls-5" d="M208.81,113.44l1.36-7.19c.23-1.13.37-2.12.48-3h1.56l-.26,2H212a4.47,4.47,0,0,1,3.76-2.22,2.49,2.49,0,0,1,2.57,2.82,10.24,10.24,0,0,1-.18,1.64L217,113.44h-1.74l1.11-5.86a7.84,7.84,0,0,0,.14-1.3c0-1-.39-1.77-1.59-1.77s-3,1.49-3.47,4l-.92,4.93Z"/><path class="cls-5" d="M242.34,106.79H237.2l-1,5.16H242l-.29,1.49H234.2l2.69-14.15h7.21l-.29,1.49h-5.46l-.87,4.53h5.15Z"/><path class="cls-5" d="M244,113.44l1.36-7.19c.22-1.13.36-2.12.48-3h1.56l-.26,2h0a4.48,4.48,0,0,1,3.77-2.22,2.49,2.49,0,0,1,2.57,2.82,10.34,10.34,0,0,1-.19,1.64l-1.12,5.92h-1.74l1.11-5.86a7.84,7.84,0,0,0,.14-1.3c0-1-.4-1.77-1.59-1.77s-3,1.49-3.48,4l-.91,4.93Z"/><path class="cls-5" d="M255.27,115.75a5.35,5.35,0,0,0,2.7.67c1.7,0,3-.87,3.65-3.62l.33-1.52h-.05a4.07,4.07,0,0,1-3.53,2.16c-2,0-3.09-1.72-3.09-3.52a6.61,6.61,0,0,1,6.44-6.86,8.22,8.22,0,0,1,3.26.71l-1.56,8.39c-.4,2.15-1,3.63-2,4.55a5.46,5.46,0,0,1-3.55,1.12,5.75,5.75,0,0,1-3-.72Zm7.81-11a4.07,4.07,0,0,0-1.68-.35c-2.54,0-4.29,2.66-4.31,5.17,0,1.12.4,2.43,2,2.43s3-1.88,3.39-3.87Z"/><path class="cls-5" d="M266.19,113.44,269,98.54h1.75l-2.85,14.9Z"/><path class="cls-5" d="M271,113.44l1.93-10.15h1.74l-1.94,10.15Zm2.26-13a1.14,1.14,0,0,1,1.14-1.17,1,1,0,0,1,1,1.09,1.15,1.15,0,0,1-1.18,1.17A1,1,0,0,1,273.26,100.45Z"/><path class="cls-5" d="M275.89,111.68a4.61,4.61,0,0,0,2.18.63,1.75,1.75,0,0,0,1.93-1.66c0-.79-.35-1.29-1.41-1.87a3,3,0,0,1-1.83-2.59c0-1.77,1.54-3.13,3.68-3.13a4.22,4.22,0,0,1,2.11.5l-.49,1.32a3.54,3.54,0,0,0-1.75-.46,1.63,1.63,0,0,0-1.81,1.52c0,.75.49,1.2,1.4,1.71a3.16,3.16,0,0,1,1.89,2.67c0,2.13-1.73,3.34-3.87,3.34a4.53,4.53,0,0,1-2.53-.69Z"/><path class="cls-5" d="M283.64,113.44l2.83-14.9h1.74l-1.27,6.54h0a4.4,4.4,0,0,1,3.63-2,2.46,2.46,0,0,1,2.53,2.72,9.83,9.83,0,0,1-.17,1.72l-1.13,5.94h-1.73l1.11-5.86a7.4,7.4,0,0,0,.14-1.4,1.48,1.48,0,0,0-1.58-1.67c-1.35,0-3,1.57-3.46,3.85l-.95,5.08Z"/><path class="cls-5" d="M316,113a6.84,6.84,0,0,1-2.95.62,3.65,3.65,0,0,1-3.9-3.92,6.46,6.46,0,0,1,6.23-6.68,4.88,4.88,0,0,1,2.11.46l-.5,1.38a4,4,0,0,0-1.73-.38c-2.63,0-4.3,2.6-4.3,5,0,1.66.86,2.72,2.53,2.72a5.45,5.45,0,0,0,2.34-.56Z"/><path class="cls-5" d="M317.85,113.44l2.85-14.9h1.74l-2.85,14.9Z"/><path class="cls-5" d="M329.39,113.44a22.48,22.48,0,0,1,.23-2.62h-.05c-1.09,2.11-2.5,2.85-3.93,2.85-1.8,0-2.92-1.42-2.92-3.35a7.08,7.08,0,0,1,7-7.26,10.41,10.41,0,0,1,2.74.38l-1,5.3a23.1,23.1,0,0,0-.44,4.7Zm1.13-8.85a4,4,0,0,0-1.21-.14c-2.63,0-4.77,2.73-4.78,5.56,0,1.13.39,2.24,1.73,2.24s3.16-1.9,3.67-4.6Z"/><path class="cls-5" d="M333.75,111.68a4.57,4.57,0,0,0,2.18.63,1.76,1.76,0,0,0,1.93-1.66c0-.79-.35-1.29-1.41-1.87a3,3,0,0,1-1.83-2.59c0-1.77,1.54-3.13,3.68-3.13a4.22,4.22,0,0,1,2.11.5l-.49,1.32a3.54,3.54,0,0,0-1.75-.46,1.63,1.63,0,0,0-1.81,1.52c0,.75.49,1.2,1.4,1.71a3.16,3.16,0,0,1,1.89,2.67c0,2.13-1.73,3.34-3.88,3.34a4.52,4.52,0,0,1-2.52-.69Z"/><path class="cls-5" d="M341.58,111.68a4.61,4.61,0,0,0,2.18.63,1.76,1.76,0,0,0,1.94-1.66c0-.79-.36-1.29-1.41-1.87a3,3,0,0,1-1.84-2.59c0-1.77,1.54-3.13,3.68-3.13a4.22,4.22,0,0,1,2.11.5l-.49,1.32a3.51,3.51,0,0,0-1.75-.46,1.63,1.63,0,0,0-1.81,1.52c0,.75.49,1.2,1.4,1.71a3.16,3.16,0,0,1,1.89,2.67c0,2.13-1.73,3.34-3.87,3.34a4.55,4.55,0,0,1-2.53-.69Z"/><path class="cls-5" d="M349.33,113.44l1.24-6.54c.25-1.32.4-2.67.51-3.61h1.54c-.08.71-.17,1.42-.28,2.21h.06a3.67,3.67,0,0,1,3.11-2.44,2.67,2.67,0,0,1,.5,0l-.34,1.72a2.09,2.09,0,0,0-.48,0c-1.5,0-2.85,1.83-3.29,4.18l-.83,4.48Z"/><path class="cls-5" d="M365.62,107.28c0,3.14-2.22,6.39-5.64,6.39a3.86,3.86,0,0,1-4-4.16c0-3.36,2.33-6.45,5.63-6.45C364.39,103.06,365.62,105.13,365.62,107.28Zm-7.8,2.16c0,1.65.91,2.85,2.4,2.85,2,0,3.61-2.65,3.61-5,0-1.19-.55-2.84-2.37-2.84C359.27,104.44,357.81,107.11,357.82,109.44Z"/><path class="cls-5" d="M376.65,107.28c0,3.14-2.23,6.39-5.64,6.39a3.86,3.86,0,0,1-4-4.16c0-3.36,2.33-6.45,5.63-6.45C375.41,103.06,376.65,105.13,376.65,107.28Zm-7.81,2.16c0,1.65.92,2.85,2.41,2.85,2,0,3.6-2.65,3.6-5,0-1.19-.55-2.84-2.37-2.84C370.29,104.44,368.84,107.11,368.84,109.44Z"/><path class="cls-5" d="M377.87,113.44l1.34-7.19c.23-1.13.36-2.12.47-3h1.54l-.27,1.9H381a4.33,4.33,0,0,1,3.58-2.13,2.2,2.2,0,0,1,2.37,2.26,4.35,4.35,0,0,1,3.73-2.26,2.41,2.41,0,0,1,2.47,2.66,11.22,11.22,0,0,1-.17,1.73l-1.13,6h-1.71l1.1-5.85a8.08,8.08,0,0,0,.15-1.32c0-1.08-.41-1.76-1.53-1.76-1.27,0-2.77,1.46-3.19,3.73l-1,5.2H384l1.14-6a7,7,0,0,0,.13-1.23c0-.86-.23-1.74-1.52-1.74s-2.85,1.68-3.24,3.83l-.94,5.1Z"/><path class="cls-5" d="M29.37,128.49l1,5.46c.22,1.17.36,1.92.46,2.68h.05c.27-.65.57-1.36,1.08-2.49l2.6-5.65h1.85l-3.82,7.72a19.38,19.38,0,0,1-3.5,5.34,6.39,6.39,0,0,1-3,1.75l-.43-1.49a6.24,6.24,0,0,0,1.86-1,7.78,7.78,0,0,0,2-2.34.62.62,0,0,0,.05-.46l-2-9.54Z"/><path class="cls-5" d="M46,132.48c0,3.14-2.22,6.4-5.64,6.4a3.87,3.87,0,0,1-4-4.17c0-3.36,2.33-6.45,5.63-6.45C44.76,128.26,46,130.33,46,132.48Zm-7.8,2.16c0,1.65.91,2.86,2.4,2.86,2,0,3.61-2.66,3.61-5,0-1.19-.55-2.84-2.37-2.84C39.64,129.64,38.18,132.31,38.19,134.64Z"/><path class="cls-5" d="M57.12,128.49l-1.37,7.2c-.22,1.13-.36,2.11-.46,2.95H53.72l.27-1.91h-.05a4.51,4.51,0,0,1-3.58,2.16c-1.3,0-2.68-.63-2.68-2.95a8.31,8.31,0,0,1,.2-1.7L49,128.49h1.74l-1.08,5.66a7.82,7.82,0,0,0-.17,1.49c0,1.05.43,1.77,1.62,1.77s2.89-1.48,3.31-3.71l1-5.21Z"/><path class="cls-5" d="M64.37,128.49l.36,5.71a26.65,26.65,0,0,1,0,2.73h0a24.49,24.49,0,0,1,1.11-2.55l3-5.89h1.52l.64,5.79c.1,1.11.17,2,.16,2.65h0c.27-.82.55-1.6,1-2.57L75,128.49h1.78l-5,10.15H70.17l-.67-5.51a22.83,22.83,0,0,1-.15-2.71h0c-.43,1-.72,1.75-1.18,2.66l-2.91,5.56H63.59l-.94-10.15Z"/><path class="cls-5" d="M86.39,132.48c0,3.14-2.23,6.4-5.64,6.4a3.88,3.88,0,0,1-4-4.17c0-3.36,2.33-6.45,5.64-6.45C85.15,128.26,86.39,130.33,86.39,132.48Zm-7.81,2.16c0,1.65.92,2.86,2.41,2.86,2.05,0,3.6-2.66,3.6-5,0-1.19-.55-2.84-2.36-2.84C80,129.64,78.58,132.31,78.58,134.64Z"/><path class="cls-5" d="M97.51,128.49l-1.37,7.2c-.21,1.13-.35,2.11-.45,2.95H94.12l.26-1.91h0a4.52,4.52,0,0,1-3.58,2.16c-1.31,0-2.69-.63-2.69-2.95a9.08,9.08,0,0,1,.2-1.7l1.1-5.74H91.1L90,134.15a7.9,7.9,0,0,0-.18,1.49c0,1.05.43,1.77,1.63,1.77s2.88-1.48,3.3-3.71l1-5.21Z"/><path class="cls-5" d="M98.66,138.64l2.84-14.9h1.74l-2.84,14.9Z"/><path class="cls-5" d="M114.26,123.74,112,135.43a29.26,29.26,0,0,0-.43,3.21H110l.27-2h0a4.36,4.36,0,0,1-3.66,2.24c-2,0-3-1.61-3-3.7,0-3.61,2.68-6.92,6.28-6.92a4.62,4.62,0,0,1,1.8.35l.91-4.87Zm-2.92,6.34a3,3,0,0,0-1.66-.43c-2.44,0-4.33,2.59-4.33,5.29,0,1.23.42,2.51,1.91,2.51,1.34,0,3-1.53,3.4-3.82Z"/><path class="cls-5" d="M114.49,138.64l1.35-7.19c.23-1.13.37-2.12.48-3h1.57l-.26,2h0a4.48,4.48,0,0,1,3.76-2.22,2.49,2.49,0,0,1,2.57,2.82,10.24,10.24,0,0,1-.18,1.64l-1.13,5.92H121l1.11-5.86a7.85,7.85,0,0,0,.13-1.3c0-1-.39-1.77-1.59-1.77s-3,1.49-3.47,4l-.92,4.93Z"/><path class="cls-5" d="M129.6,124.26a31.74,31.74,0,0,1-2.77,5l-1.2.13a37.52,37.52,0,0,0,2.06-4.91Z"/><path class="cls-5" d="M133.38,125.76l-.53,2.73h2.43l-.27,1.36h-2.43l-.94,4.94a8.53,8.53,0,0,0-.2,1.62.86.86,0,0,0,1,1,3.25,3.25,0,0,0,.82-.08l-.08,1.37a4.21,4.21,0,0,1-1.35.19,1.88,1.88,0,0,1-2.13-2,9.33,9.33,0,0,1,.22-1.91l1-5.14h-1.45l.26-1.36h1.46l.43-2.29Z"/><path class="cls-5" d="M139.19,136.88a4.61,4.61,0,0,0,2.19.63,1.76,1.76,0,0,0,1.93-1.66c0-.79-.36-1.29-1.41-1.87a3.06,3.06,0,0,1-1.84-2.59c0-1.77,1.54-3.13,3.69-3.13a4.22,4.22,0,0,1,2.11.5l-.49,1.32a3.65,3.65,0,0,0-1.75-.46,1.63,1.63,0,0,0-1.81,1.52c0,.75.49,1.2,1.39,1.71a3.18,3.18,0,0,1,1.9,2.67c0,2.13-1.74,3.34-3.88,3.34a4.52,4.52,0,0,1-2.52-.69Z"/><path class="cls-5" d="M146,142.8l2-10.71c.23-1.22.44-2.58.57-3.6h1.59l-.28,1.91h0a4.53,4.53,0,0,1,3.65-2.14c2.2,0,3.13,1.81,3.13,3.67,0,3.57-2.56,6.95-5.95,6.95a4.57,4.57,0,0,1-2.19-.46h0l-.82,4.38Zm2.85-5.86a3.13,3.13,0,0,0,1.94.56c2.25,0,4.13-2.79,4.13-5.45,0-1.06-.47-2.34-1.95-2.34s-3.07,1.56-3.6,4.4Z"/><path class="cls-5" d="M165.35,138.06a7.12,7.12,0,0,1-3.35.8c-2.7,0-3.87-1.83-3.87-4.08,0-3.06,2.27-6.52,5.54-6.52,1.93,0,3,1.15,3,2.6,0,2.67-3,3.37-6.75,3.3a4.12,4.12,0,0,0,.2,1.93,2.3,2.3,0,0,0,2.26,1.37,5.64,5.64,0,0,0,2.74-.7Zm-1.92-8.45c-1.66,0-2.91,1.62-3.34,3.21,2.74,0,4.88-.33,4.88-1.91C165,130.07,164.33,129.61,163.43,129.61Z"/><path class="cls-5" d="M174.28,138.64a22.09,22.09,0,0,1,.22-2.62h0c-1.1,2.11-2.5,2.86-3.93,2.86-1.8,0-2.92-1.43-2.92-3.36a7.08,7.08,0,0,1,7-7.26,10.47,10.47,0,0,1,2.74.38l-1,5.3a22.3,22.3,0,0,0-.43,4.7Zm1.13-8.85a4.07,4.07,0,0,0-1.21-.14c-2.63,0-4.78,2.73-4.79,5.56,0,1.13.39,2.24,1.73,2.24s3.17-1.9,3.68-4.6Z"/><path class="cls-5" d="M178.51,138.64l2.83-14.9h1.73l-1.78,9.34h0c.31-.35.69-.74.95-1l3.58-3.57H188l-4.43,4.17,3,6H184.7l-2.45-5L181,134.78l-.73,3.86Z"/><path class="cls-5" d="M191.79,138.64l2.83-14.9h1.74l-1.26,6.54h0a4.37,4.37,0,0,1,3.63-2,2.46,2.46,0,0,1,2.52,2.72,9,9,0,0,1-.17,1.72L200,138.64h-1.74l1.11-5.86a7.4,7.4,0,0,0,.14-1.4,1.48,1.48,0,0,0-1.58-1.67c-1.35,0-3,1.57-3.46,3.85l-.94,5.08Z"/><path class="cls-5" d="M210.33,138.06a7.2,7.2,0,0,1-3.36.8c-2.7,0-3.86-1.83-3.86-4.08,0-3.06,2.27-6.52,5.54-6.52,1.93,0,3,1.15,3,2.6,0,2.67-3,3.37-6.76,3.3a4.12,4.12,0,0,0,.2,1.93,2.3,2.3,0,0,0,2.26,1.37,5.61,5.61,0,0,0,2.74-.7Zm-1.93-8.45c-1.66,0-2.91,1.62-3.33,3.21,2.73,0,4.87-.33,4.87-1.91C209.94,130.07,209.31,129.61,208.4,129.61Z"/><path class="cls-5" d="M212.52,138.64l1.24-6.54c.25-1.32.4-2.67.51-3.61h1.54c-.09.71-.17,1.42-.29,2.21h.06a3.72,3.72,0,0,1,3.12-2.44,2.67,2.67,0,0,1,.5,0l-.34,1.72a2.15,2.15,0,0,0-.48,0c-1.5,0-2.85,1.83-3.29,4.18l-.84,4.48Z"/><path class="cls-5" d="M226.39,138.06a7.16,7.16,0,0,1-3.36.8c-2.69,0-3.86-1.83-3.86-4.08,0-3.06,2.27-6.52,5.54-6.52,1.93,0,3,1.15,3,2.6,0,2.67-3,3.37-6.76,3.3a4.27,4.27,0,0,0,.21,1.93,2.29,2.29,0,0,0,2.26,1.37,5.56,5.56,0,0,0,2.73-.7Zm-1.92-8.45c-1.66,0-2.91,1.62-3.34,3.21,2.74,0,4.88-.33,4.88-1.91C226,130.07,225.37,129.61,224.47,129.61Z"/><path class="cls-5" d="M232.29,138.64l2.85-14.9h1.74L234,138.64Z"/><path class="cls-5" d="M237.1,138.64,239,128.49h1.73l-1.94,10.15Zm2.26-13a1.15,1.15,0,0,1,1.14-1.17,1,1,0,0,1,1,1.09,1.15,1.15,0,0,1-1.18,1.17A1,1,0,0,1,239.36,125.65Z"/><path class="cls-5" d="M241.91,138.64l2.83-14.9h1.73l-1.78,9.34h0c.31-.35.69-.74,1-1l3.58-3.57h2.15L247,132.66l3,6H248.1l-2.45-5-1.28,1.15-.73,3.86Z"/><path class="cls-5" d="M258.51,138.06a7.16,7.16,0,0,1-3.36.8c-2.69,0-3.86-1.83-3.86-4.08,0-3.06,2.27-6.52,5.54-6.52,1.93,0,3,1.15,3,2.6,0,2.67-3,3.37-6.76,3.3a4.27,4.27,0,0,0,.21,1.93,2.29,2.29,0,0,0,2.26,1.37,5.56,5.56,0,0,0,2.73-.7Zm-1.92-8.45c-1.66,0-2.91,1.62-3.34,3.21,2.74,0,4.88-.33,4.88-1.91C258.13,130.07,257.49,129.61,256.59,129.61Z"/><path class="cls-5" d="M266.63,128.49l1,5.46c.23,1.17.36,1.92.46,2.68h.05c.27-.65.57-1.36,1.08-2.49l2.6-5.65h1.85l-3.81,7.72a19.38,19.38,0,0,1-3.5,5.34,6.45,6.45,0,0,1-3,1.75l-.42-1.49a6.48,6.48,0,0,0,1.86-1,7.76,7.76,0,0,0,2-2.34.62.62,0,0,0,.05-.46l-2-9.54Z"/><path class="cls-5" d="M283.25,132.48c0,3.14-2.23,6.4-5.64,6.4a3.87,3.87,0,0,1-4-4.17c0-3.36,2.33-6.45,5.63-6.45C282,128.26,283.25,130.33,283.25,132.48Zm-7.81,2.16c0,1.65.92,2.86,2.41,2.86,2,0,3.6-2.66,3.6-5,0-1.19-.55-2.84-2.37-2.84C276.89,129.64,275.44,132.31,275.44,134.64Z"/><path class="cls-5" d="M294.37,128.49l-1.37,7.2c-.21,1.13-.36,2.11-.45,2.95H291l.26-1.91h0a4.53,4.53,0,0,1-3.59,2.16c-1.3,0-2.68-.63-2.68-2.95a9.08,9.08,0,0,1,.2-1.7l1.1-5.74H288l-1.08,5.66a8.72,8.72,0,0,0-.17,1.49c0,1.05.43,1.77,1.62,1.77s2.89-1.48,3.31-3.71l1-5.21Z"/><path class="cls-5" d="M310,123.74l-2.23,11.69a27,27,0,0,0-.43,3.21h-1.59l.27-2h0a4.37,4.37,0,0,1-3.67,2.24c-1.95,0-3-1.61-3-3.7,0-3.61,2.68-6.92,6.28-6.92a4.62,4.62,0,0,1,1.8.35l.91-4.87Zm-2.92,6.34a3,3,0,0,0-1.66-.43c-2.44,0-4.34,2.59-4.34,5.29,0,1.23.42,2.51,1.92,2.51,1.34,0,3-1.53,3.4-3.82Z"/><path class="cls-5" d="M320,132.48c0,3.14-2.23,6.4-5.64,6.4a3.87,3.87,0,0,1-4-4.17c0-3.36,2.33-6.45,5.63-6.45C318.75,128.26,320,130.33,320,132.48Zm-7.81,2.16c0,1.65.92,2.86,2.41,2.86,2,0,3.6-2.66,3.6-5,0-1.19-.55-2.84-2.37-2.84C313.63,129.64,312.18,132.31,312.18,134.64Z"/><path class="cls-5" d="M331.65,138.64a20.46,20.46,0,0,1,.23-2.62h-.05c-1.1,2.11-2.5,2.86-3.93,2.86-1.8,0-2.92-1.43-2.92-3.36a7.08,7.08,0,0,1,7-7.26,10.47,10.47,0,0,1,2.74.38l-1,5.3a23.73,23.73,0,0,0-.43,4.7Zm1.13-8.85a4,4,0,0,0-1.21-.14c-2.63,0-4.78,2.73-4.79,5.56,0,1.13.4,2.24,1.74,2.24s3.16-1.9,3.67-4.6Z"/><path class="cls-5" d="M340.44,125.76l-.52,2.73h2.43l-.27,1.36h-2.43l-.94,4.94a8.53,8.53,0,0,0-.2,1.62.86.86,0,0,0,1,1,3.25,3.25,0,0,0,.82-.08l-.08,1.37a4.21,4.21,0,0,1-1.35.19,1.88,1.88,0,0,1-2.13-2A9.33,9.33,0,0,1,337,135l1-5.14h-1.45l.26-1.36h1.46l.43-2.29Z"/><path class="cls-5" d="M346.18,138.64l2.83-14.9h1.74l-1.26,6.54h0a4.37,4.37,0,0,1,3.63-2,2.46,2.46,0,0,1,2.52,2.72,9.83,9.83,0,0,1-.16,1.72l-1.13,5.94h-1.74l1.11-5.86a7.4,7.4,0,0,0,.14-1.4,1.48,1.48,0,0,0-1.58-1.67c-1.34,0-3,1.57-3.46,3.85l-.94,5.08Z"/><path class="cls-5" d="M367.14,132.48c0,3.14-2.23,6.4-5.64,6.4a3.87,3.87,0,0,1-4-4.17c0-3.36,2.33-6.45,5.63-6.45C365.9,128.26,367.14,130.33,367.14,132.48Zm-7.81,2.16c0,1.65.92,2.86,2.41,2.86,2,0,3.6-2.66,3.6-5,0-1.19-.55-2.84-2.37-2.84C360.78,129.64,359.33,132.31,359.33,134.64Z"/><path class="cls-5" d="M368.36,138.64l1.34-7.19c.22-1.13.36-2.12.47-3h1.54l-.27,1.91h.05a4.32,4.32,0,0,1,3.58-2.14,2.21,2.21,0,0,1,2.37,2.26,4.35,4.35,0,0,1,3.73-2.26,2.41,2.41,0,0,1,2.47,2.66,11.22,11.22,0,0,1-.17,1.73l-1.14,6h-1.7l1.1-5.85a8.08,8.08,0,0,0,.15-1.32c0-1.08-.41-1.76-1.53-1.76-1.27,0-2.77,1.46-3.19,3.73l-1,5.2h-1.7l1.14-6a7,7,0,0,0,.13-1.23c0-.86-.24-1.74-1.52-1.74s-2.85,1.68-3.24,3.83l-.94,5.1Z"/><path class="cls-5" d="M392.65,138.06a7.2,7.2,0,0,1-3.36.8c-2.7,0-3.86-1.83-3.86-4.08,0-3.06,2.27-6.52,5.54-6.52,1.93,0,3,1.15,3,2.6,0,2.67-3,3.37-6.76,3.3a4.12,4.12,0,0,0,.2,1.93,2.3,2.3,0,0,0,2.26,1.37,5.61,5.61,0,0,0,2.74-.7Zm-1.93-8.45c-1.66,0-2.91,1.62-3.33,3.21,2.73,0,4.87-.33,4.87-1.91C392.26,130.07,391.63,129.61,390.72,129.61Z"/></svg>