<svg id="Layer_1" data-name="Layer 1" xmlns="http://www.w3.org/2000/svg" viewBox="0 0 509.66 327.72"><defs><style>.cls-1{fill:#005f9b;}.cls-2{fill:#24338a;}.cls-3{fill:#3372a9;}.cls-4{fill:#eae9f3;}.cls-5,.cls-6{fill:none;stroke:#231f20;stroke-miterlimit:10;stroke-width:2px;}.cls-6{stroke-linecap:square;}.cls-7{fill:#908ec0;}.cls-8,.cls-9{fill:#231f20;}.cls-9{font-size:12px;font-family:Rockwell-Regular, Rockwell;}</style></defs><path class="cls-1" d="M83.29,102.76a7.25,7.25,0,1,1-7.24-7.25A7.24,7.24,0,0,1,83.29,102.76Zm-8.45,45.87v19.31a4.83,4.83,0,1,1-9.66,0V134.28l-4.31,7.18a4.83,4.83,0,1,1-8.27-5l8.79-14.64a14.51,14.51,0,0,1,12.42-7h4.48a14.49,14.49,0,0,1,12.42,7l8.8,14.64a4.83,4.83,0,1,1-8.27,5l-4.33-7.18v33.66a4.83,4.83,0,0,1-9.66,0V148.63Z" transform="translate(16.61 -95.51)"/><path class="cls-1" d="M176,110a7.25,7.25,0,1,1,7.25-7.24A7.24,7.24,0,0,1,176,110Zm-10.86,43.46h-2.69a2.43,2.43,0,0,1-2.29-3.19L166,133l-5.11,8.51a4.83,4.83,0,1,1-8.27-5L160.68,123a16.93,16.93,0,0,1,14.49-8.19h1.75A16.93,16.93,0,0,1,191.41,123l8.08,13.46a4.83,4.83,0,1,1-8.27,5L186.11,133l5.78,17.3a2.42,2.42,0,0,1-2.3,3.19h-2.68v14.48a4.83,4.83,0,1,1-9.66,0V153.46h-2.41v14.48a4.83,4.83,0,0,1-9.66,0Z" transform="translate(16.61 -95.51)"/><path class="cls-2" d="M56.07,215.63a7.25,7.25,0,1,1-7.24-7.25A7.24,7.24,0,0,1,56.07,215.63ZM47.62,261.5v19.31a4.83,4.83,0,0,1-9.66,0V247.15l-4.31,7.18a4.83,4.83,0,1,1-8.27-5l8.79-14.64a14.51,14.51,0,0,1,12.42-7h4.48a14.49,14.49,0,0,1,12.42,7l8.8,14.64a4.83,4.83,0,1,1-8.27,5l-4.33-7.18v33.66a4.83,4.83,0,1,1-9.66,0V261.5Z" transform="translate(16.61 -95.51)"/><path class="cls-2" d="M197.61,215.63a7.24,7.24,0,1,0,7.24-7.25A7.24,7.24,0,0,0,197.61,215.63Zm8.45,45.87v19.31a4.83,4.83,0,1,0,9.65,0V247.15l4.32,7.18a4.83,4.83,0,1,0,8.27-5l-8.8-14.64a14.5,14.5,0,0,0-12.42-7H202.6a14.5,14.5,0,0,0-12.42,7l-8.8,14.64a4.83,4.83,0,1,0,8.27,5l4.33-7.18v33.66a4.83,4.83,0,1,0,9.66,0V261.5Z" transform="translate(16.61 -95.51)"/><path class="cls-2" d="M126.84,222.87a7.25,7.25,0,1,0-7.25-7.24A7.24,7.24,0,0,0,126.84,222.87Zm10.86,43.46h2.69a2.43,2.43,0,0,0,2.29-3.19l-5.78-17.32,5.12,8.51a4.82,4.82,0,1,0,8.26-5l-8.08-13.46a16.93,16.93,0,0,0-14.49-8.19H126a16.9,16.9,0,0,0-14.48,8.19l-8.09,13.46a4.83,4.83,0,1,0,8.27,5l5.11-8.49L111,263.14a2.43,2.43,0,0,0,2.3,3.19H116v14.48a4.83,4.83,0,0,0,9.66,0V266.33H128v14.48a4.83,4.83,0,1,0,9.66,0Z" transform="translate(16.61 -95.51)"/><path class="cls-3" d="M428,102.76a7.25,7.25,0,1,0,7.25-7.25A7.25,7.25,0,0,0,428,102.76Zm8.45,45.87v19.31a4.83,4.83,0,1,0,9.66,0V134.28l4.32,7.18a4.83,4.83,0,1,0,8.27-5l-8.8-14.64a14.5,14.5,0,0,0-12.42-7H433a14.5,14.5,0,0,0-12.42,7l-8.8,14.64a4.83,4.83,0,1,0,8.27,5l4.33-7.18v33.66a4.83,4.83,0,1,0,9.66,0V148.63Z" transform="translate(16.61 -95.51)"/><path class="cls-1" d="M335.28,110a7.25,7.25,0,1,0-7.24-7.24A7.24,7.24,0,0,0,335.28,110Zm10.86,43.46h2.69a2.43,2.43,0,0,0,2.29-3.19L345.34,133l5.12,8.51a4.83,4.83,0,1,0,8.27-5L350.64,123a16.92,16.92,0,0,0-14.49-8.19H334.4A16.9,16.9,0,0,0,319.92,123l-8.09,13.46a4.83,4.83,0,1,0,8.27,5l5.11-8.49-5.78,17.3a2.43,2.43,0,0,0,2.3,3.19h2.68v14.48a4.83,4.83,0,1,0,9.66,0V153.46h2.42v14.48a4.83,4.83,0,1,0,9.65,0Z" transform="translate(16.61 -95.51)"/><path class="cls-2" d="M385.27,222.87a7.25,7.25,0,1,1,7.24-7.24A7.24,7.24,0,0,1,385.27,222.87Zm-10.86,43.46h-2.69a2.43,2.43,0,0,1-2.29-3.19l5.78-17.32-5.12,8.51a4.83,4.83,0,1,1-8.27-5l8.09-13.46a16.9,16.9,0,0,1,14.48-8.19h1.76a16.9,16.9,0,0,1,14.48,8.19l8.09,13.46a4.83,4.83,0,1,1-8.27,5l-5.12-8.49,5.78,17.3a2.42,2.42,0,0,1-2.29,3.19h-2.69v14.48a4.83,4.83,0,1,1-9.65,0V266.33h-2.42v14.48a4.83,4.83,0,1,1-9.65,0Z" transform="translate(16.61 -95.51)"/><path class="cls-4" d="M233.83,341.72a7.25,7.25,0,1,0-7.24-7.25A7.26,7.26,0,0,0,233.83,341.72Zm10.87,43.45h2.68a2.42,2.42,0,0,0,2.3-3.18l-5.78-17.32,5.11,8.51a4.83,4.83,0,0,0,8.27-5l-8.09-13.46a16.89,16.89,0,0,0-14.48-8.2H233a16.92,16.92,0,0,0-14.49,8.2l-8.08,13.46a4.82,4.82,0,0,0,8.26,5l5.12-8.5L218,382a2.41,2.41,0,0,0,2.29,3.18H223v14.49a4.83,4.83,0,1,0,9.66,0V385.17H235v14.49a4.83,4.83,0,1,0,9.66,0Z" transform="translate(16.61 -95.51)"/><line class="cls-5" x1="130.02" y1="39.45" x2="155.29" y2="39.45"/><line class="cls-5" x1="142.66" y1="104.99" x2="142.66" y2="39.45"/><line class="cls-5" x1="65.43" y1="91.46" x2="221.45" y2="91.46"/><line class="cls-6" x1="65.43" y1="91.46" x2="65.43" y2="104.99"/><line class="cls-6" x1="221.45" y1="91.46" x2="221.45" y2="104.99"/><line class="cls-5" x1="389.24" y1="39.45" x2="414.51" y2="39.45"/><line class="cls-5" x1="401.88" y1="96.16" x2="401.88" y2="39.45"/><line class="cls-5" x1="259.82" y1="161.15" x2="363.09" y2="161.15"/><line class="cls-5" x1="312.52" y1="205.02" x2="312.52" y2="161.15"/><line class="cls-6" x1="250.44" y1="219.63" x2="250.44" y2="205.02"/><line class="cls-5" x1="312.52" y1="205.02" x2="250.44" y2="205.02"/><path class="cls-7" d="M358,341.72a7.25,7.25,0,1,0-7.24-7.25A7.26,7.26,0,0,0,358,341.72Zm10.87,43.45h2.68a2.42,2.42,0,0,0,2.3-3.18l-5.78-17.32,5.11,8.51a4.83,4.83,0,0,0,8.27-5l-8.09-13.46a16.89,16.89,0,0,0-14.48-8.2h-1.75a16.92,16.92,0,0,0-14.49,8.2l-8.09,13.46a4.83,4.83,0,0,0,8.27,5l5.12-8.5L342.15,382a2.41,2.41,0,0,0,2.29,3.18h2.69v14.49a4.83,4.83,0,1,0,9.66,0V385.17h2.41v14.49a4.83,4.83,0,1,0,9.66,0Z" transform="translate(16.61 -95.51)"/><line class="cls-5" x1="65.44" y1="201.32" x2="65.43" y2="220.71"/><line class="cls-5" y1="220.71" x2="65.43" y2="220.71"/><polygon class="cls-8" points="314.61 40.45 291.5 39.45 314.61 38.45 314.61 40.45"/><polygon class="cls-8" points="486.54 38.45 509.66 39.45 486.54 40.45 486.54 38.45"/><line class="cls-6" x1="374.6" y1="219.63" x2="374.6" y2="205.02"/><line class="cls-5" x1="312.52" y1="205.02" x2="374.6" y2="205.02"/><polygon class="cls-8" points="52.85 40.45 29.74 39.45 52.85 38.45 52.85 40.45"/><text class="cls-9" transform="translate(241.08 324.2)">me</text></svg>